<svg xmlns="http://www.w3.org/2000/svg" viewBox="0 0 4680 3120"><g data-name="4"><rect width="4680" height="3120" fill="#fff" data-name="4" opacity="0"/><path fill="#e8f3eb" d="M3869.11,1706c0-515.86-462.88-934-1033.87-934a1147.57,1147.57,0,0,0-186.59,15.21C2459.11,526.63,2169.44,360,1844.76,360c-571,0-1033.87,515.18-1033.87,1150.7,0,536.23,329.55,986.79,775.53,1114.48,105.8,39.16,376.23,118.28,783.7,93,501.61-31.08,795.61-95.46,874.06-154.11C3611.77,2420.92,3869.11,2090.65,3869.11,1706Z"/><path fill="#6cb1a9" d="M3366.22,1527.44h-15.33v-4.31h15.33Zm-35.61,0h-20.29v-4.31h20.29Zm-28.85-11.74h-4.31v-20.3h4.31Zm0-40.61h-4.31v-20.31h4.31Zm0-40.62h-4.31v-20.31h4.31Zm0-40.62h-4.31v-20.3h4.31Zm0-40.61h-4.31v-20.31h4.31Zm0-40.62h-4.31v-20.31h4.31Zm237.76-21.69h-20.29v-4.31h20.29Zm-40.58,0h-20.29v-4.31h20.29Zm-40.57,0h-20.29v-4.31h20.29Zm-40.58,0h-20.28v-4.31h20.28Zm-40.57,0h-20.29v-4.31h20.29Zm-40.58,0h-20.28v-4.31h20.28Z"/><path fill="#6cb1a9" d="M3520.79,1837.9a3.06,3.06,0,0,1,3.11,3.1l-.05,37.19a3.1,3.1,0,1,1-6.19,0l.05-37.19A3.07,3.07,0,0,1,3520.79,1837.9Zm-.11,74.37a3.07,3.07,0,0,1,3.11,3.09l0,12.67a3.08,3.08,0,0,1-3.12,3.1l-24.47,0a3.1,3.1,0,0,1,0-6.19l21.41,0v-9.58A3.08,3.08,0,0,1,3520.68,1912.27ZM3199,1924.46l37.21,0a3.1,3.1,0,0,1,0,6.2l-37.2-.06a3.1,3.1,0,0,1,0-6.19Zm74.32.11,37.13.06a3.1,3.1,0,1,1,0,6.19l-37.13-.06a3.1,3.1,0,0,1,0-6.19Zm74.3.11,37.15.06a3.1,3.1,0,0,1,0,6.19l-37.15-.06a3.1,3.1,0,1,1,0-6.19Zm74.28.11,37.17.06a3.1,3.1,0,0,1,0,6.19l-37.17-.06a3.1,3.1,0,0,1,0-6.19Z"/><path fill="#818cc5" d="M1179.84,1140.16a4.91,4.91,0,0,1-.74-.08,3.11,3.11,0,0,1-2.36-3c0-14.53-44.52-44.58-77.09-66.52-13.84-9.33-26.91-18.13-36.05-25.27-33.5-26-20.77-149.14-20.22-154.37a3.16,3.16,0,0,1,3.1-2.78c55,0,125.51-59.7,126.18-60.31a3.44,3.44,0,0,1,2.33-.73,3.07,3.07,0,0,1,2.13,1.19c38.19,48.53,126.09,53.14,127,53.18A3.1,3.1,0,0,1,1307,884c1,6,24.26,147.29-20.46,172.6-85.19,48.23-103.78,81.59-104,81.91A3.11,3.11,0,0,1,1179.84,1140.16Z" opacity=".2"/><path fill="#1da49d" d="M1367.2,1817.94a27.4,27.4,0,0,1-27.3,27.33l-326.81.12c-7.28-.92-10.2-11.41-10.2-13.86l.18-612.85c-.18-10,12.64-14.22,15.12-14.22l321.73-.27a27.37,27.37,0,0,1,27.28,27.3Z" opacity=".2"/><path fill="#7bccc6" d="M3268.73,2117.94a49.54,49.54,0,0,1-49.55,49.58H1556.77a49.58,49.58,0,0,1-49.55-49.58V864.55a49.59,49.59,0,0,1,49.55-49.6H3219.18a49.56,49.56,0,0,1,49.55,49.6Z" opacity=".45"/><rect width="369.4" height="343.53" x="3356.29" y="1473.73" fill="#3c3d88" rx="24.22"/><path fill="#7bc3cb" d="M3235.9,2081.16a49.54,49.54,0,0,1-49.55,49.58H1523.94a49.58,49.58,0,0,1-49.55-49.58V827.76a49.59,49.59,0,0,1,49.55-49.59H3186.35a49.55,49.55,0,0,1,49.55,49.59Z"/><rect width="1625.3" height="1216.19" x="1542.48" y="846.35" fill="#212c5e"/><path fill="#1da49d" d="M1385.41,1797.29a27.39,27.39,0,0,1-27.3,27.33l-326.8.11c-7.29-.91-10.2-11.4-10.2-13.85l.18-612.85c-.18-10,12.64-14.22,15.12-14.22l321.72-.27a27.36,27.36,0,0,1,27.28,27.3Z"/><path fill="#3c3d88" d="M1366.55,1233.89v536.4a4.47,4.47,0,0,1-4.41,4.46H1044.38a4.5,4.5,0,0,1-4.46-4.46v-536.4a4.48,4.48,0,0,1,4.46-4.46h317.76A4.45,4.45,0,0,1,1366.55,1233.89Z"/><path fill="#fbccb6" d="M1222.1,1799.11a18.83,18.83,0,1,1-18.82-18.84A18.83,18.83,0,0,1,1222.1,1799.11Z"/><path fill="#fbccb6" d="M1206.94,1197.29a3.69,3.69,0,1,1-3.66-3.69A3.67,3.67,0,0,1,1206.94,1197.29Z"/><path fill="#fbccb6" d="M1247.74,1214.57H1158.8a1.1,1.1,0,1,1,0-2.2h88.94a1.1,1.1,0,0,1,0,2.2Z"/><path fill="#112d50" d="M1366.55,1233.89v516.63l-326.63-420.2v-96.43a4.48,4.48,0,0,1,4.46-4.46h317.76A4.45,4.45,0,0,1,1366.55,1233.89Z" opacity=".3"/><rect width="298.21" height="25.65" x="1874.76" y="1780.27" fill="#f3a380"/><rect width="253.85" height="20.64" x="1874.76" y="1827.69" fill="#f3a380"/><rect width="172.46" height="22.71" x="1874.76" y="1873.15" fill="#f3a380"/><rect width="253.85" height="30.97" x="1874.76" y="1913.44" fill="#f3a380"/><rect width="134.17" height="25.78" x="1874.76" y="1956.84" fill="#f3a380"/><rect width="259.01" height="25.09" x="1874.76" y="1995.74" fill="#f3a380"/><rect width="76.39" height="613.1" x="2499.07" y="1425.33" fill="#3c3d88"/><polygon fill="#3c3d88" points="2671.44 1425.35 2671.44 1626.04 2611.56 1626.04 2611.8 2038.43 2595.01 2038.43 2595.01 1425.35 2671.44 1425.35"/><polygon fill="#1b8ccc" points="2685.58 1626.04 2616.57 1626.04 2616.69 1616 2685.34 1616 2685.58 1626.04"/><rect width="241.46" height="23.42" x="2875.72" y="1662.73" fill="#3c3d88"/><rect width="241.46" height="23.45" x="2875.72" y="1705.15" fill="#3c3d88"/><rect width="241.46" height="23.46" x="2875.72" y="1747.6" fill="#3c3d88"/><rect width="241.46" height="23.45" x="2875.72" y="1790.02" fill="#3c3d88"/><rect width="241.46" height="23.48" x="2875.72" y="1832.47" fill="#3c3d88"/><rect width="241.46" height="23.44" x="2875.72" y="1874.92" fill="#3c3d88"/><rect width="241.46" height="23.47" x="2875.72" y="1917.34" fill="#3c3d88"/><rect width="241.46" height="23.46" x="2875.72" y="1959.79" fill="#3c3d88"/><rect width="241.46" height="23.43" x="2875.72" y="2002.25" fill="#3c3d88"/><path fill="#2f3086" d="M2194.69,2046.92a2.33,2.33,0,0,1-2.35-2.3v-617H1547.63a2.32,2.32,0,0,1,0-4.64h647.06a2.34,2.34,0,0,1,2.3,2.31v619.29A2.34,2.34,0,0,1,2194.69,2046.92Z"/><path fill="#fde6db" d="M2099.73,1330H1586.85a2.33,2.33,0,1,1,0-4.65h512.88a2.33,2.33,0,0,1,0,4.65Z"/><path fill="#fde6db" d="M1645.68,1365.16h-58.83a2.32,2.32,0,1,1,0-4.64h58.83a2.32,2.32,0,1,1,0,4.64Z"/><path fill="#fde6db" d="M1954.23,1400.29H1586.85a2.33,2.33,0,1,1,0-4.65h367.38a2.33,2.33,0,0,1,0,4.65Z"/><path fill="#fde6db" d="M1739.56,908.57h-147.1a2.32,2.32,0,1,1,0-4.63h147.1a2.32,2.32,0,1,1,0,4.63Z"/><path fill="#fde6db" d="M1821.32,943.71H1592.46a2.33,2.33,0,1,1,0-4.66h228.86a2.33,2.33,0,0,1,0,4.66Z"/><path fill="#fde6db" d="M2127.58,978.82H1592.46a2.32,2.32,0,1,1,0-4.64h535.12a2.32,2.32,0,1,1,0,4.64Z"/><path fill="#fde6db" d="M2051.2,1014H1592.46a2.35,2.35,0,0,1-2.34-2.33,2.32,2.32,0,0,1,2.34-2.33H2051.2a2.32,2.32,0,0,1,2.34,2.33A2.34,2.34,0,0,1,2051.2,1014Z"/><path fill="#fde6db" d="M1854.16,1049.08H1637.44a2.33,2.33,0,0,1,0-4.66h216.72a2.33,2.33,0,0,1,0,4.66Z"/><path fill="#fde6db" d="M1717.9,1084.19h-80.46a2.33,2.33,0,0,1,0-4.66h80.46a2.33,2.33,0,1,1,0,4.66Z"/><path fill="#fde6db" d="M2041.93,1119.31H1637.44a2.33,2.33,0,0,1,0-4.66h404.49a2.33,2.33,0,1,1,0,4.66Z"/><path fill="#fde6db" d="M1715.2,1154.42h-77.76a2.32,2.32,0,0,1,0-4.64h77.76a2.32,2.32,0,0,1,0,4.64Z"/><path fill="#fde6db" d="M1655.31,1189.53h-56a2.31,2.31,0,1,1,0-4.61h56a2.31,2.31,0,1,1,0,4.61Z"/><path fill="#fde6db" d="M1622,1224.69h-35.13a2.36,2.36,0,0,1-2.33-2.32,2.34,2.34,0,0,1,2.33-2.33H1622a2.33,2.33,0,0,1,0,4.65Z"/><path fill="#fde6db" d="M2111.58,1259.81H1586.85a2.34,2.34,0,0,1,0-4.68h524.73a2.34,2.34,0,0,1,0,4.68Z"/><path fill="#fde6db" d="M2012.09,1294.92H1586.85a2.33,2.33,0,1,1,0-4.65h425.24a2.33,2.33,0,1,1,0,4.65Z"/><path fill="#f4a1a9" d="M2750.85,1405.93H2165.78a2.33,2.33,0,0,1-2.33-2.33V861.26a2.34,2.34,0,0,1,4.67,0v540h580.41v-540a2.33,2.33,0,0,1,4.65,0V1403.6A2.32,2.32,0,0,1,2750.85,1405.93Z"/><path fill="#fbccb6" d="M2611.56,2054.15a2.32,2.32,0,0,1-2.33-2.33V1626a2.32,2.32,0,0,1,2.33-2.33h544.05a2.34,2.34,0,0,1,2.32,2.33,2.37,2.37,0,0,1-2.32,2.34H2613.88v423.44A2.34,2.34,0,0,1,2611.56,2054.15Z"/><path fill="#3c3d88" d="M2322,1573.82h-97a2.32,2.32,0,1,1,0-4.64h97a2.32,2.32,0,0,1,0,4.64Z"/><path fill="#da3b26" d="M2336.44,1440.83H2225a2.33,2.33,0,1,1,0-4.65h111.44a2.33,2.33,0,0,1,0,4.65Z"/><path fill="#fbccb6" d="M2358.08,1474.06H2225a2.31,2.31,0,1,1,0-4.62h133.08a2.31,2.31,0,1,1,0,4.62Z"/><path fill="#fbccb6" d="M2436.52,1507.32H2225a2.32,2.32,0,1,1,0-4.64h211.52a2.32,2.32,0,1,1,0,4.64Z"/><path fill="#3c3d88" d="M2358.08,1540.58H2225a2.33,2.33,0,1,1,0-4.66h133.08a2.33,2.33,0,0,1,0,4.66Z"/><path fill="#fbccb6" d="M2450.43,1607.45H2225a2.33,2.33,0,1,1,0-4.65h225.43a2.33,2.33,0,1,1,0,4.65Z"/><path fill="#fbccb6" d="M2476.37,2038.06a2.33,2.33,0,0,1-2.32-2.32V1616a2.33,2.33,0,0,1,4.65,0v419.77A2.32,2.32,0,0,1,2476.37,2038.06Z"/><path fill="#3c3d88" d="M2750.85,1687.08H2649.76a2.35,2.35,0,0,1-2.37-2.35,2.32,2.32,0,0,1,2.37-2.31h101.09a2.31,2.31,0,0,1,2.33,2.31A2.34,2.34,0,0,1,2750.85,1687.08Z"/><path fill="#059bd5" d="M2721,1715.84h-71.22a2.33,2.33,0,1,1,0-4.65H2721a2.33,2.33,0,0,1,0,4.65Z"/><path fill="#3c3d88" d="M2814.87,1744.61H2649.76a2.34,2.34,0,1,1,0-4.67h165.11a2.34,2.34,0,0,1,0,4.67Z"/><path fill="#059bd5" d="M2721,1773.36h-71.22a2.31,2.31,0,1,1,0-4.61H2721a2.31,2.31,0,0,1,0,4.61Z"/><path fill="#3c3d88" d="M2834.42,1802.13H2649.76a2.31,2.31,0,1,1,0-4.62h184.66a2.31,2.31,0,1,1,0,4.62Z"/><path fill="#059bd5" d="M2742.11,1830.89h-92.35a2.31,2.31,0,1,1,0-4.61h92.35a2.31,2.31,0,0,1,0,4.61Z"/><path fill="#da3b26" d="M2838.55,1859.7H2649.76a2.33,2.33,0,1,1,0-4.66h188.79a2.33,2.33,0,1,1,0,4.66Z"/><path fill="#da3b26" d="M2750.85,1888.46H2649.76a2.33,2.33,0,1,1,0-4.66h101.09a2.33,2.33,0,0,1,0,4.66Z"/><path fill="#059bd5" d="M2721,1917.22h-71.22a2.32,2.32,0,0,1-2.37-2.3,2.35,2.35,0,0,1,2.37-2.36H2721a2.34,2.34,0,0,1,2.29,2.36A2.3,2.3,0,0,1,2721,1917.22Z"/><path fill="#da3b26" d="M2805.56,1946h-155.8a2.31,2.31,0,1,1,0-4.61h155.8a2.31,2.31,0,1,1,0,4.61Z"/><path fill="#059bd5" d="M2755,1974.75H2649.76a2.31,2.31,0,1,1,0-4.61H2755a2.31,2.31,0,1,1,0,4.61Z"/><path fill="#da3b26" d="M2805.6,2003.55H2649.76a2.33,2.33,0,1,1,0-4.65H2805.6a2.33,2.33,0,0,1,0,4.65Z"/><path fill="#ee4f50" d="M2817.94,863.55h-40.25a2.31,2.31,0,1,1,0-4.61h40.25a2.31,2.31,0,1,1,0,4.61Z"/><path fill="#ee4f50" d="M2817.94,881.75h-40.25a2.37,2.37,0,0,1-2.32-2.34,2.34,2.34,0,0,1,2.32-2.33h40.25a2.35,2.35,0,0,1,2.37,2.33A2.38,2.38,0,0,1,2817.94,881.75Z"/><path fill="#ee4f50" d="M2817.94,899.89h-40.25a2.36,2.36,0,0,1-2.32-2.33,2.33,2.33,0,0,1,2.32-2.32h40.25a2.34,2.34,0,0,1,2.37,2.32A2.37,2.37,0,0,1,2817.94,899.89Z"/><path fill="#ee4f50" d="M2817.94,918h-40.25a2.33,2.33,0,0,1,0-4.66h40.25a2.33,2.33,0,1,1,0,4.66Z"/><path fill="#ee4f50" d="M2817.94,936.17h-40.25a2.35,2.35,0,0,1-2.32-2.33,2.32,2.32,0,0,1,2.32-2.3h40.25a2.34,2.34,0,0,1,2.37,2.3A2.36,2.36,0,0,1,2817.94,936.17Z"/><path fill="#ee4f50" d="M2817.94,954.34h-40.25a2.34,2.34,0,0,1,0-4.67h40.25a2.34,2.34,0,1,1,0,4.67Z"/><path fill="#ee4f50" d="M2817.94,972.47h-40.25a2.32,2.32,0,1,1,0-4.63h40.25a2.32,2.32,0,1,1,0,4.63Z"/><path fill="#ee4f50" d="M2817.94,990.62h-40.25a2.35,2.35,0,0,1-2.32-2.35,2.33,2.33,0,0,1,2.32-2.29h40.25a2.34,2.34,0,0,1,2.37,2.29A2.36,2.36,0,0,1,2817.94,990.62Z"/><path fill="#ee4f50" d="M2817.94,1008.77h-40.25a2.35,2.35,0,0,1-2.32-2.33,2.32,2.32,0,0,1,2.32-2.3h40.25a2.34,2.34,0,0,1,2.37,2.3A2.36,2.36,0,0,1,2817.94,1008.77Z"/><path fill="#ee4f50" d="M2817.94,1026.9h-40.25a2.32,2.32,0,1,1,0-4.63h40.25a2.32,2.32,0,1,1,0,4.63Z"/><path fill="#ee4f50" d="M2817.94,1045.07h-40.25a2.33,2.33,0,0,1,0-4.66h40.25a2.33,2.33,0,1,1,0,4.66Z"/><path fill="#ee4f50" d="M2817.94,1063.2h-40.25a2.31,2.31,0,1,1,0-4.62h40.25a2.31,2.31,0,1,1,0,4.62Z"/><path fill="#ee4f50" d="M2817.94,1081.35h-40.25a2.33,2.33,0,0,1-2.32-2.31,2.36,2.36,0,0,1,2.32-2.34h40.25a2.37,2.37,0,0,1,2.37,2.34A2.34,2.34,0,0,1,2817.94,1081.35Z"/><path fill="#ee4f50" d="M2817.94,1099.5h-40.25a2.33,2.33,0,0,1-2.32-2.29,2.35,2.35,0,0,1,2.32-2.35h40.25a2.36,2.36,0,0,1,2.37,2.35A2.34,2.34,0,0,1,2817.94,1099.5Z"/><path fill="#ee4f50" d="M2817.94,1117.67h-40.25a2.33,2.33,0,0,1,0-4.66h40.25a2.33,2.33,0,1,1,0,4.66Z"/><path fill="#ee4f50" d="M2817.94,1135.82h-40.25a2.33,2.33,0,0,1,0-4.66h40.25a2.33,2.33,0,1,1,0,4.66Z"/><path fill="#ee4f50" d="M2817.94,1154h-40.25a2.33,2.33,0,0,1,0-4.66h40.25a2.33,2.33,0,1,1,0,4.66Z"/><path fill="#ee4f50" d="M2817.94,1172.12h-40.25a2.33,2.33,0,0,1,0-4.66h40.25a2.33,2.33,0,1,1,0,4.66Z"/><path fill="#ee4f50" d="M2954.67,863.55H2852.5a2.31,2.31,0,0,1,0-4.61h102.17a2.31,2.31,0,0,1,0,4.61Z"/><path fill="#ee4f50" d="M2954.67,881.75H2852.5a2.3,2.3,0,0,1-2.28-2.34,2.27,2.27,0,0,1,2.28-2.33h102.17a2.28,2.28,0,0,1,2.29,2.33A2.31,2.31,0,0,1,2954.67,881.75Z"/><path fill="#ee4f50" d="M2954.67,899.89H2852.5a2.29,2.29,0,0,1-2.28-2.33,2.26,2.26,0,0,1,2.28-2.32h102.17a2.27,2.27,0,0,1,2.29,2.32A2.3,2.3,0,0,1,2954.67,899.89Z"/><path fill="#ee4f50" d="M2954.67,918H2852.5a2.33,2.33,0,0,1,0-4.66h102.17a2.33,2.33,0,0,1,0,4.66Z"/><path fill="#ee4f50" d="M2954.67,936.17H2852.5a2.28,2.28,0,0,1-2.28-2.33,2.26,2.26,0,0,1,2.28-2.3h102.17a2.27,2.27,0,0,1,2.29,2.3A2.29,2.29,0,0,1,2954.67,936.17Z"/><path fill="#ee4f50" d="M2954.67,954.34H2852.5a2.34,2.34,0,0,1,0-4.67h102.17a2.34,2.34,0,0,1,0,4.67Z"/><path fill="#ee4f50" d="M2954.67,972.47H2852.5a2.32,2.32,0,0,1,0-4.63h102.17a2.32,2.32,0,0,1,0,4.63Z"/><path fill="#ee4f50" d="M2954.67,990.62H2852.5a2.29,2.29,0,0,1-2.28-2.35,2.26,2.26,0,0,1,2.28-2.29h102.17a2.27,2.27,0,0,1,2.29,2.29A2.3,2.3,0,0,1,2954.67,990.62Z"/><path fill="#ee4f50" d="M2954.67,1008.77H2852.5a2.28,2.28,0,0,1-2.28-2.33,2.26,2.26,0,0,1,2.28-2.3h102.17a2.27,2.27,0,0,1,2.29,2.3A2.29,2.29,0,0,1,2954.67,1008.77Z"/><path fill="#ee4f50" d="M2954.67,1026.9H2852.5a2.32,2.32,0,0,1,0-4.63h102.17a2.32,2.32,0,0,1,0,4.63Z"/><path fill="#ee4f50" d="M2954.67,1045.07H2852.5a2.33,2.33,0,0,1,0-4.66h102.17a2.33,2.33,0,0,1,0,4.66Z"/><path fill="#ee4f50" d="M2954.67,1063.2H2852.5a2.31,2.31,0,0,1,0-4.62h102.17a2.31,2.31,0,0,1,0,4.62Z"/><path fill="#ee4f50" d="M2954.67,1081.35H2852.5a2.27,2.27,0,0,1-2.28-2.31,2.29,2.29,0,0,1,2.28-2.34h102.17A2.3,2.3,0,0,1,2957,1079,2.28,2.28,0,0,1,2954.67,1081.35Z"/><path fill="#ee4f50" d="M2954.67,1099.5H2852.5a2.26,2.26,0,0,1-2.28-2.29,2.29,2.29,0,0,1,2.28-2.35h102.17a2.3,2.3,0,0,1,2.29,2.35A2.27,2.27,0,0,1,2954.67,1099.5Z"/><path fill="#ee4f50" d="M2954.67,1117.67H2852.5a2.33,2.33,0,0,1,0-4.66h102.17a2.33,2.33,0,0,1,0,4.66Z"/><path fill="#ee4f50" d="M2954.67,1135.82H2852.5a2.33,2.33,0,0,1,0-4.66h102.17a2.33,2.33,0,0,1,0,4.66Z"/><path fill="#ee4f50" d="M2954.67,1154H2852.5a2.33,2.33,0,0,1,0-4.66h102.17a2.33,2.33,0,0,1,0,4.66Z"/><path fill="#ee4f50" d="M2954.67,1172.12H2852.5a2.33,2.33,0,0,1,0-4.66h102.17a2.33,2.33,0,0,1,0,4.66Z"/><path fill="#ee4f50" d="M3129.6,863.55H2988.21a2.31,2.31,0,1,1,0-4.61H3129.6a2.31,2.31,0,0,1,0,4.61Z"/><path fill="#ee4f50" d="M3129.6,881.75H2988.21a2.33,2.33,0,0,1-2.32-2.34,2.3,2.3,0,0,1,2.32-2.33H3129.6a2.3,2.3,0,0,1,2.28,2.33A2.32,2.32,0,0,1,3129.6,881.75Z"/><path fill="#ee4f50" d="M3129.6,899.89H2988.21a2.32,2.32,0,0,1-2.32-2.33,2.3,2.3,0,0,1,2.32-2.32H3129.6a2.29,2.29,0,0,1,2.28,2.32A2.32,2.32,0,0,1,3129.6,899.89Z"/><path fill="#ee4f50" d="M3129.6,918H2988.21a2.33,2.33,0,0,1,0-4.66H3129.6a2.33,2.33,0,0,1,0,4.66Z"/><path fill="#ee4f50" d="M3129.6,936.17H2988.21a2.32,2.32,0,0,1-2.32-2.33,2.29,2.29,0,0,1,2.32-2.3H3129.6a2.28,2.28,0,0,1,2.28,2.3A2.31,2.31,0,0,1,3129.6,936.17Z"/><path fill="#ee4f50" d="M3129.6,954.34H2988.21a2.34,2.34,0,0,1,0-4.67H3129.6a2.34,2.34,0,0,1,0,4.67Z"/><path fill="#ee4f50" d="M3129.6,972.47H2988.21a2.32,2.32,0,1,1,0-4.63H3129.6a2.32,2.32,0,0,1,0,4.63Z"/><path fill="#ee4f50" d="M3129.6,990.62H2988.21a2.32,2.32,0,0,1-2.32-2.35,2.3,2.3,0,0,1,2.32-2.29H3129.6a2.29,2.29,0,0,1,2.28,2.29A2.31,2.31,0,0,1,3129.6,990.62Z"/><path fill="#ee4f50" d="M3129.6,1008.77H2988.21a2.32,2.32,0,0,1-2.32-2.33,2.29,2.29,0,0,1,2.32-2.3H3129.6a2.28,2.28,0,0,1,2.28,2.3A2.31,2.31,0,0,1,3129.6,1008.77Z"/><path fill="#ee4f50" d="M3129.6,1026.9H2988.21a2.32,2.32,0,1,1,0-4.63H3129.6a2.32,2.32,0,0,1,0,4.63Z"/><path fill="#ee4f50" d="M3129.6,1045.07H2988.21a2.33,2.33,0,0,1,0-4.66H3129.6a2.33,2.33,0,0,1,0,4.66Z"/><path fill="#ee4f50" d="M3129.6,1063.2H2988.21a2.31,2.31,0,1,1,0-4.62H3129.6a2.31,2.31,0,0,1,0,4.62Z"/><path fill="#ee4f50" d="M3129.6,1081.35H2988.21a2.3,2.3,0,0,1-2.32-2.31,2.33,2.33,0,0,1,2.32-2.34H3129.6a2.32,2.32,0,0,1,2.28,2.34A2.29,2.29,0,0,1,3129.6,1081.35Z"/><path fill="#ee4f50" d="M3129.6,1099.5H2988.21a2.3,2.3,0,0,1-2.32-2.29,2.32,2.32,0,0,1,2.32-2.35H3129.6a2.31,2.31,0,0,1,2.28,2.35A2.29,2.29,0,0,1,3129.6,1099.5Z"/><path fill="#ee4f50" d="M3129.6,1117.67H2988.21a2.33,2.33,0,0,1,0-4.66H3129.6a2.33,2.33,0,0,1,0,4.66Z"/><path fill="#ee4f50" d="M3129.6,1135.82H2988.21a2.33,2.33,0,0,1,0-4.66H3129.6a2.33,2.33,0,0,1,0,4.66Z"/><path fill="#ee4f50" d="M3129.6,1154H2988.21a2.33,2.33,0,0,1,0-4.66H3129.6a2.33,2.33,0,0,1,0,4.66Z"/><path fill="#ee4f50" d="M3129.6,1172.12H2988.21a2.33,2.33,0,0,1,0-4.66H3129.6a2.33,2.33,0,0,1,0,4.66Z"/><path fill="#f4a1a9" d="M3149.19,1226.74h-371.5a2.33,2.33,0,0,1,0-4.65h371.5a2.33,2.33,0,0,1,0,4.65Z"/><path fill="#f4a1a9" d="M2817.94,1258.74h-40.25a2.31,2.31,0,1,1,0-4.62h40.25a2.31,2.31,0,1,1,0,4.62Z"/><path fill="#f4a1a9" d="M3037.72,1294.92h-260a2.33,2.33,0,0,1,0-4.65h260a2.33,2.33,0,0,1,0,4.65Z"/><path fill="#6cb1a9" d="M1218.49,813.8a3.07,3.07,0,0,1-3.11-3.1V773.51a3.1,3.1,0,1,1,6.19,0V810.7A3.08,3.08,0,0,1,1218.49,813.8Zm0-74.37a3.08,3.08,0,0,1-3.11-3.09V723.67a3.08,3.08,0,0,1,3.11-3.1H1243a3.1,3.1,0,0,1,0,6.19h-21.4v9.58A3.09,3.09,0,0,1,1218.49,739.43Zm321.69-12.67H1503a3.1,3.1,0,0,1,0-6.19h37.21a3.1,3.1,0,0,1,0,6.19Zm-74.32,0h-37.13a3.1,3.1,0,1,1,0-6.19h37.13a3.1,3.1,0,0,1,0,6.19Zm-74.3,0h-37.15a3.1,3.1,0,0,1,0-6.19h37.15a3.1,3.1,0,1,1,0,6.19Zm-74.27,0h-37.17a3.1,3.1,0,1,1,0-6.19h37.17a3.1,3.1,0,0,1,0,6.19Z"/><path fill="#6cb1a9" d="M1190.94,1130.67a4.93,4.93,0,0,1-.73-.08,3.11,3.11,0,0,1-2.36-3c0-14.53-44.52-44.58-77.1-66.52-13.83-9.34-26.9-18.13-36-25.28-33.5-26-20.77-149.13-20.22-154.37a3.17,3.17,0,0,1,3.1-2.78c55,0,125.52-59.69,126.19-60.3a3.37,3.37,0,0,1,2.32-.74,3.12,3.12,0,0,1,2.13,1.19c38.19,48.53,126.09,53.15,127,53.19a3.06,3.06,0,0,1,2.89,2.56c1,6,24.27,147.29-20.45,172.61-85.2,48.22-103.78,81.59-104,81.9A3.09,3.09,0,0,1,1190.94,1130.67Z"/><path fill="#f9a51a" d="M1173.69,2217.79a50.83,50.83,0,0,1,4.08,19.28v1a46.36,46.36,0,0,0,30.26,43.48,23,23,0,0,0,44.11,0,46.35,46.35,0,0,0,30.25-43.48h0a53.12,53.12,0,0,1,4.35-20.31Z"/><path fill="#fcd332" d="M1173.69,2217.79h113c5.6-13.47,15.8-25.81,26-35.85a117.78,117.78,0,0,0-86.34-201.55c-60.44,1.86-110.29,50.35-113.76,110.78a117.52,117.52,0,0,0,35.32,91.24C1158,2192.27,1168.23,2204.47,1173.69,2217.79Z"/><path fill="#fff" d="M1282.81,2223.82H1177.36a3.07,3.07,0,1,1,0-6.14h105.45a3.07,3.07,0,1,1,0,6.14Z"/><path fill="#fff" d="M1278.87,2249.23H1181.3a3.07,3.07,0,1,1,0-6.14h97.57a3.07,3.07,0,1,1,0,6.14Z"/><path fill="#fff" d="M1215,2220.39a3.07,3.07,0,0,1-3.07-3.07v-93.77H1193.5a22.74,22.74,0,0,1,0-45.48h1.86a22.75,22.75,0,0,1,22.71,22.74v16.6H1239a3.07,3.07,0,0,1,0,6.14h-20.94v93.77A3.07,3.07,0,0,1,1215,2220.39Zm-21.51-136.17a16.6,16.6,0,0,0,0,33.19h18.44v-16.6a16.6,16.6,0,0,0-16.58-16.59Z"/><path fill="#fff" d="M1245.16,2220.39a3.07,3.07,0,0,1-3.07-3.07v-93.77h-20.94a3.07,3.07,0,0,1,0-6.14h20.94v-16.6a22.75,22.75,0,0,1,22.71-22.74h1.86a22.74,22.74,0,0,1,0,45.48h-18.44v93.77A3.07,3.07,0,0,1,1245.16,2220.39Zm3.06-103h18.44a16.6,16.6,0,0,0,0-33.19h-1.86a16.6,16.6,0,0,0-16.58,16.59Z"/><path fill="#f9a239" d="M1341.94,1983.23a4,4,0,0,1-.49-5.56l26.24-31.3a3.94,3.94,0,1,1,6,5.07l-26.24,31.3A3.94,3.94,0,0,1,1341.94,1983.23Z"/><path fill="#f9a239" d="M1398.7,2081.65a3.93,3.93,0,0,1,3.2-4.57l40.2-7.1a3.94,3.94,0,0,1,1.36,7.77l-40.19,7.1A4,4,0,0,1,1398.7,2081.65Z"/><path fill="#f9a239" d="M1379,2193.56a3.93,3.93,0,0,1,5.38-1.44l35.35,20.43a3.94,3.94,0,0,1-3.94,6.83L1380.43,2199A3.94,3.94,0,0,1,1379,2193.56Z"/><path fill="#f9a239" d="M1091.53,2193.56a4,4,0,0,1-1.44,5.39l-35.35,20.43a3.94,3.94,0,1,1-3.94-6.83l35.35-20.43A3.93,3.93,0,0,1,1091.53,2193.56Z"/><path fill="#f9a239" d="M1071.82,2081.65a4,4,0,0,1-4.57,3.2l-40.2-7.1a3.94,3.94,0,0,1,1.37-7.77l40.2,7.09A4,4,0,0,1,1071.82,2081.65Z"/><path fill="#f9a239" d="M1128.58,1983.23a3.94,3.94,0,0,1-5.55-.49l-26.24-31.3a3.94,3.94,0,1,1,6-5.07l26.24,31.3A4,4,0,0,1,1128.58,1983.23Z"/><path fill="#f9a239" d="M1235.26,1944.36a3.94,3.94,0,0,1-3.94-3.95v-40.86a3.94,3.94,0,0,1,7.88,0v40.86A3.94,3.94,0,0,1,1235.26,1944.36Z"/><path fill="#4f5152" d="M1430.79,2595h156.83a9.34,9.34,0,0,1,9.34,9.34v54.55a8.42,8.42,0,0,1-8.42,8.42H1430.79a0,0,0,0,1,0,0V2595A0,0,0,0,1,1430.79,2595Z"/><rect width="324.55" height="53.71" x="1133.21" y="2603.23" fill="#f4f6f7"/><path fill="#e9e6dc" d="M1133.21,2614.94l.36,3.16,305.31,1.24s10.82-.29,18.52,14v-30.1H1133.21Z"/><path fill="#676769" d="M1114.36,2596.23l328.19-.85s31.5,3.71,28.78,39.66-36.38,33.47-36.38,33.47l-318.75,1.24.54-15.5,323.64-.31s19-3.1,16.83-24.48-19-20.45-19-20.45l-324.19.62Z"/><path fill="#1da49d" d="M1429.7,2522.14h156.83a9.34,9.34,0,0,1,9.34,9.34V2586a8.42,8.42,0,0,1-8.42,8.42H1429.7a0,0,0,0,1,0,0v-72.3A0,0,0,0,1,1429.7,2522.14Z"/><rect width="325" height="53.71" x="1132.12" y="2529.48" fill="#f4f6f7"/><path fill="#e9e6dc" d="M1132.12,2541.19c.23,1.94.37,3.16.37,3.16l305.22,1.24s10.82-.29,18.51,14v-30.1h-324.1Z"/><path fill="#6cb1a9" d="M1113.28,2522.48l328.19-.86s31.49,3.72,28.78,39.67-36.39,33.47-36.39,33.47L1115.11,2596l.54-15.5,323.64-.31s19-3.1,16.84-24.48-19-20.45-19-20.45l-324.18.62Z"/><rect width="131.89" height="13.86" x="3390.51" y="1662.82" fill="#fff" rx="6.61"/><rect width="202.77" height="13.42" x="3390.51" y="1706.47" fill="#fff" rx="6.61"/><rect width="69.06" height="15.71" x="3390.51" y="1750.13" fill="#fff" rx="6.61"/><rect width="69.06" height="15.71" x="3487.76" y="1750.13" fill="#f9a239" rx="6.61"/><rect width="99.18" height="15.71" x="3581.54" y="1750.13" fill="#f9a239" rx="6.61"/><rect width="60.23" height="13.42" x="3620.49" y="1706.47" fill="#f9a239" rx="6.61"/><rect width="131.89" height="13.86" x="3548.82" y="1662.82" fill="#f9a239" rx="6.61"/><rect width="135.63" height="16.97" x="3392.56" y="1519.67" fill="#fff" rx="6.61"/><rect width="208.51" height="17.48" x="3392.56" y="1564.56" fill="#fff" rx="6.61"/><rect width="71.02" height="17.44" x="3392.56" y="1609.45" fill="#fff" rx="6.61"/><rect width="71.02" height="17.44" x="3492.56" y="1609.45" fill="#f9a239" rx="6.61"/><rect width="101.98" height="17.44" x="3589" y="1609.45" fill="#f9a239" rx="6.61"/><rect width="61.93" height="17.48" x="3629.05" y="1564.56" fill="#f9a239" rx="6.61"/><rect width="135.63" height="16.97" x="3555.35" y="1519.67" fill="#f9a239" rx="6.61"/><path fill="#7bccc6" d="M3791.19,1188.48a27.7,27.7,0,0,0-27.68-27.71H3457.83a27.7,27.7,0,0,0-27.68,27.71v187a27.69,27.69,0,0,0,27.68,27.7h305.68a27.69,27.69,0,0,0,27.68-27.7Z" opacity=".45"/><path fill="#1bb9ec" d="M3773.52,1169.36a27.7,27.7,0,0,0-27.68-27.72H3440.16a27.71,27.71,0,0,0-27.69,27.72v187a27.7,27.7,0,0,0,27.69,27.71h305.68a27.7,27.7,0,0,0,27.68-27.71Z"/><path fill="#f9a51a" d="M3412.47,1189.44v-20.08a27.71,27.71,0,0,1,27.69-27.72h305.68a27.7,27.7,0,0,1,27.68,27.72v20.08Z"/><path fill="#b5dff6" d="M3592.05,1240c0-.58-.08-1.16-.08-1.75a25.79,25.79,0,0,1,36.53-23.52,34.44,34.44,0,0,1,59.67,23.52c0,.9,0,1.78-.11,2.66a45.81,45.81,0,0,1-65.62,52.08,30.6,30.6,0,1,1-30.39-53Z" opacity=".4"/><path fill="#b5dff6" d="M3651.77,1266.36c.06-.9.13-1.81.13-2.74a40.4,40.4,0,0,0-57.23-36.84,54,54,0,0,0-93.5,36.84c0,1.41.07,2.79.17,4.17a47.94,47.94,0,1,0,50.27,81.6,47.8,47.8,0,0,0,52.55,0,47.94,47.94,0,1,0,47.61-83Z"/><polygon fill="#423a66" points="3577.88 1255.65 3541.44 1292.13 3559.9 1292.13 3559.9 1317.92 3595.87 1317.92 3595.87 1292.13 3614.33 1292.13 3577.88 1255.65"/><rect width="16.45" height="16.46" x="3736.42" y="1159.17" fill="#e8f3eb"/><rect width="16.44" height="16.46" x="3714.95" y="1159.17" fill="#e8f3eb"/><rect width="16.45" height="16.46" x="3693.47" y="1159.17" fill="#e8f3eb"/><path fill="#f4a1a9" d="M1925.34,829.23a10.54,10.54,0,0,1-10.53,10.55H1545.06a10.54,10.54,0,0,1-10.54-10.55V606.8a10.54,10.54,0,0,1,10.54-10.54h369.75a10.53,10.53,0,0,1,10.53,10.54Z" opacity=".3"/><path fill="#f4a1a9" d="M1943.29,808.09a10.54,10.54,0,0,1-10.53,10.55H1563a10.54,10.54,0,0,1-10.54-10.55V585.66A10.55,10.55,0,0,1,1563,575.11h369.75a10.54,10.54,0,0,1,10.53,10.55Z"/><path fill="#ee4f50" d="M1932.76,575.11H1563a10.55,10.55,0,0,0-10.54,10.55v38.18h390.82V585.66A10.54,10.54,0,0,0,1932.76,575.11Z"/><rect width="11.01" height="11.02" x="1916.87" y="597.02" fill="#fff"/><rect width="11.01" height="11.02" x="1902.5" y="597.02" fill="#fff"/><rect width="11.01" height="11.02" x="1888.13" y="597.02" fill="#fff"/><path fill="#fff" d="M1717.15,697l-46,19,46,19v13.15l-57.37-24.59V708.4l57.37-24.73Z"/><path fill="#fff" d="M1775.32,650.84l-42.23,123.63h-14.74l42.37-123.63Z"/><path fill="#fff" d="M1770.94,734.19l46-19-46-19V683l57.38,24.59v15.16l-57.38,24.73Z"/><path fill="#1da49d" d="M3656.13,1975.47c-2.14-4.12-4.48-8.16-6.81-12.2-5.16-9-10.24-17.94-12.76-27.91-3.07-12.08-2.16-24.75-2.29-37.21-.48-44.87-14.81-109.21-65.31-122.85-20.74-5.6-45.27,1.67-56.93,19.73-12.4,19.21-6.52,39.32-6.87,60.28-.35,20.57-14.44,38.15-14.38,59.83,0,1.7.07,3.4.16,5.09a21.34,21.34,0,0,1,10.17-2.48c9.66,0,17.49,5.92,17.49,13.22s-7.83,13.22-17.49,13.22a22.49,22.49,0,0,1-6.29-.9,119.94,119.94,0,0,0,15.07,32.83c4.87,7.44,10.52,14.41,14.36,22.43,11.78,24.56,4.49,54-6.83,78.77s-26.66,48.31-31.31,75.15c-5.27,30.44,4.74,57,19.14,83.08,14.1,25.6,42,45.72,63.09,66-4.86-4.69,48.34-59.28,53.5-65.87,14.32-18.28,27.07-38.1,36.15-59.54,9-21.19,10.7-42.18,13.53-64.7C3677.25,2066,3677.77,2017.2,3656.13,1975.47Z"/><path fill="#1da49d" d="M3656.13,1975.47c-2.14-4.12-4.48-8.16-6.81-12.2-5.16-9-10.23-17.94-12.76-27.91-3.07-12.08-2.16-24.75-2.29-37.21-.48-44.87-14.81-109.21-65.31-122.85a55.93,55.93,0,0,0-30.86.7c18.51,33.25,37.06,68.83,34.66,106.71-1.23,19.39-8,38.31-7.33,57.74.8,23.19,12,44.54,21.88,65.54,30.64,65.16,35.07,130,5.71,196.67-12.53,28.43-28.2,55.55-41.49,83.59,5.82,5.16,11.53,10.24,16.81,15.34-4.86-4.69,48.33-59.28,53.5-65.87,14.32-18.28,27.07-38.11,36.15-59.54,9-21.19,10.7-42.18,13.53-64.7C3677.25,2066,3677.77,2017.2,3656.13,1975.47Z" opacity=".2"/><path fill="#028989" d="M3556.9,1828.71c11.68,47.5,17.07,96.44,20.13,145.2,3.1,49.51-6.84,93.42-20.8,140.45-12.05,40.61-14.55,79.39-7.58,121.18,8,48,25.13,93.84,30.82,142.28.53,4.51,7.65,4.56,7.11,0-5-42.72-18-83.7-27.39-125.55-5.43-24.33-8.57-48.93-7.9-73.87.68-25.51,8.19-50.35,15.53-74.58,13.87-45.86,19.91-88.51,16.91-136.5-2.95-47.13-8.68-94.61-20-140.51-1.09-4.45-8-2.56-6.86,1.9Z"/><path fill="#028989" d="M3486.5,2187.56q.49,2.66,1.13,5.28,29,21.4,60.07,39.88a1.69,1.69,0,0,0,1.4.86l.65.4a1.79,1.79,0,0,0,2.57-2.08,1204.33,1204.33,0,0,0,113.26-80.16c.4-1.8.74-3.61,1.08-5.42a1198.78,1198.78,0,0,1-117.3,83.24A723.54,723.54,0,0,1,3486.5,2187.56Z"/><path fill="#028989" d="M3548.19,2154.69q-25.28-18.54-50.58-37c-.5,1.1-1,2.2-1.47,3.31q25.13,18.36,50.25,36.76C3548.24,2159.12,3550,2156,3548.19,2154.69Z"/><path fill="#028989" d="M3551.6,2156.69a1383.15,1383.15,0,0,1,123-81.31c0-1.39.09-2.79.13-4.19a1379.89,1379.89,0,0,0-125,82.43C3548,2155,3549.75,2158.06,3551.6,2156.69Z"/><path fill="#028989" d="M3570.53,2078.3a1.81,1.81,0,0,0-.72,1.8l-42.22-31.81c-.29,1.24-.61,2.48-.94,3.72l41.42,31.21c1.36,1,2.68-.42,2.53-1.79a1.39,1.39,0,0,0,1.73,0q48-35.45,97.09-69.41c-.29-1.24-.56-2.49-.87-3.72Q3619,2042.57,3570.53,2078.3Z"/><path fill="#028989" d="M3582,2010a2.59,2.59,0,0,0,.31-.19q30.45-28.48,61.81-56c-.57-1.09-1.13-2.17-1.67-3.27q-31.76,27.89-62.66,56.71l0,.06a632.46,632.46,0,0,1-78.7-47.46c1,2.21,2.09,4.38,3.23,6.53a632.53,632.53,0,0,0,75.13,44.76A1.83,1.83,0,0,0,3582,2010Z"/><path fill="#028989" d="M3575.79,1932.27l.1,0c1.77.77,3.32-1.32,2.47-2.53l54.55-54.12c-.17-1.48-.34-3-.54-4.48L3575,1928.07l-80.13-35c-.38,1.12-.73,2.25-1.07,3.39L3573,1931A1.79,1.79,0,0,0,3575.79,1932.27Z"/><path fill="#028989" d="M3567.93,1852.09s.09-.06.14-.11q19.6-24.62,40.74-47.91-1-1.48-2.16-2.91-21.2,23.38-40.92,48.08l-61.65-22.92c0,1.26,0,2.53.07,3.81l61.76,23A1.49,1.49,0,0,0,3567.93,1852.09Z"/><path fill="#1da49d" d="M3477.12,2301.47c-1.07-25.47-5.52-49.28-22.87-69.16-15.3-17.53-36.94-27.91-56.19-41s-37.63-31.31-39.92-54.47c-.75-7.56.29-15.17.54-22.76.62-18.45-3.55-37.21-13.09-53-6.69-11.08-17.52-17.63-26.65-25.64-.17.46-.36.91-.57,1.36-3.83,8.29-11.53,12.87-17.21,10.24s-7.17-11.47-3.34-19.76a21,21,0,0,1,7.52-9c-7.61-13.67-13-28-28.53-35.5-16.52-8-37.66-2.42-50.32,10.89-30.82,32.4-12.75,85.74,6.8,118.71,5.43,9.16,11.71,18,14.83,28.2,2.58,8.39,2.86,17.21,3.06,26,.05,1.87.09,3.75.15,5.63a41.4,41.4,0,0,1,4.65-.26c12.45,0,22.53,5.23,22.53,11.67s-10.08,11.67-22.53,11.67c-.7,0-1.4,0-2.09-.06,6.72,33.28,25.89,63.09,46.81,89.43,12.05,15.18,22.63,29.73,38.58,41.22,16.12,11.62,34.23,20.43,52.79,27.4,6.69,2.52,69.74,18.74,68.27,24.32C3466.69,2353.53,3478.18,2326.43,3477.12,2301.47Z"/><path fill="#028989" d="M3259,2027.39c12.54,39.87,30.31,78,49.7,115,19.7,37.52,46.43,65.16,77.48,93.29,26.8,24.29,45.82,51.5,59.27,85.11,15.43,38.57,23.26,79.68,40.59,117.57,1.62,3.53-3.56,6.73-5.19,3.17-15.29-33.43-23.95-69.13-35.68-103.84-6.82-20.18-15.44-39.54-27-57.44-11.81-18.33-28.31-33.13-44.41-47.56-30.47-27.31-53.8-55.77-72.88-92.14-18.75-35.72-35.62-72.94-47.74-111.46-1.17-3.74,4.68-5.41,5.85-1.66Z"/><path fill="#028989" d="M3469.53,2258.09c.54,1.45,1,2.9,1.51,4.37q-11.7,28.53-26.17,55.81a1.44,1.44,0,0,1-.64,1.25c-.11.19-.2.39-.3.58a1.53,1.53,0,0,1-2.8-.38,1029.55,1029.55,0,0,1-118.24-8.19c-1.09-1.14-2.14-2.31-3.19-3.48a1024.94,1024.94,0,0,0,122.56,8.65A619.4,619.4,0,0,0,3469.53,2258.09Z"/><path fill="#028989" d="M3409.91,2261.51q10.23-24.75,20.51-49.49c.86.58,1.71,1.17,2.55,1.76q-10.2,24.58-20.39,49.18C3411.83,2264.77,3409.17,2263.3,3409.91,2261.51Z"/><path fill="#028989" d="M3408.31,2264.49a1180.92,1180.92,0,0,0-125.88-4.69c-.66-1-1.31-2-2-3a1179.86,1179.86,0,0,1,127.78,4.65C3410.18,2261.63,3410.26,2264.67,3408.31,2264.49Z"/><path fill="#028989" d="M3359.72,2215.67a1.57,1.57,0,0,1,1.33,1l16.71-42c.77.77,1.55,1.54,2.34,2.3l-16.4,41.19c-.54,1.35-2.14.88-2.64-.18a1.21,1.21,0,0,1-1.29.73q-50.78-4.54-101.67-7.53c-.33-1-.69-2.07-1-3.11Q3308.45,2211.14,3359.72,2215.67Z"/><path fill="#028989" d="M3321.1,2170.89a1.61,1.61,0,0,1-.31,0q-34.87-7.26-69.95-13.39c-.06-1-.14-2.08-.23-3.12q35.55,6.24,70.9,13.56s0,0,.06,0a542.62,542.62,0,0,0,36.41-69.62q.36,3.09.53,6.2a543.17,543.17,0,0,1-35,66.07A1.58,1.58,0,0,1,3321.1,2170.89Z"/><path fill="#028989" d="M3291.12,2111.39l-.06.08a1.61,1.61,0,0,1-2.92-.75l-63.82-15.27c-.54-1.16-1.08-2.33-1.6-3.51l67.1,16,43-61.14c.77.65,1.53,1.32,2.29,2q-21.24,30.2-42.47,60.38A1.53,1.53,0,0,1,3291.12,2111.39Z"/><path fill="#028989" d="M3261.3,2049.36a.89.89,0,0,1-.15,0q-25.23-9.26-51-16.87c.07-1,.16-2.07.28-3.09q25.86,7.66,51.2,16.92l34.84-44.13c.56.93,1.11,1.86,1.64,2.81l-34.9,44.21A1.27,1.27,0,0,1,3261.3,2049.36Z"/><path fill="#028989" d="M3582.55,2197.31c-1.66-11.65-2.53-22.94-4.47-34-1.83-10.4-4.62-20.61-9.9-30.71-9-17.32-21.84-31.66-35-45.93-8.54-9.29-16.39-18.83-18.4-31.66-4.67-29.83,6.64-57.33-13.58-84.26-7.09-9.45-16.53-17-23.24-26.72-12.62-18.29-14.13-41.81-21.6-62.75a114.4,114.4,0,0,0-47.41-58.49c-12.92-7.93-28.6-13.35-41.32-3-11.05,8.94-17.76,22.52-20,36.44-5.22,33,16.24,66.64,8,99-4,15.74-14.58,28.87-21.71,43.46-13.45,27.5-4.92,73.65,16.33,95.57,9.09,9.39,19.29,17.76,27.33,28.06,13.63,17.42,9.81,39.82,10.55,61,.37,10.63.75,21.32,2.91,31.74a85.71,85.71,0,0,0,2.9,10.58c2.52-4.48,8.47-7.63,15.4-7.63,9.23,0,16.71,5.57,16.71,12.45s-7.48,12.44-16.71,12.44a21,21,0,0,1-8.39-1.7c28.51,50.18,101.47,73,140.79,111.09-1.52-15.26,3.92-30.38,10.86-44s15.49-26.58,21-40.9C3581.69,2246.24,3585.72,2219.69,3582.55,2197.31Z"/><path fill="#077370" d="M3396.15,1886.89c20.07,43.89,36.85,87.61,45,135.41,8,47.19,5.17,94.53,9.48,141.91,4,43.66,27.16,76.78,50.17,112.52,27.54,42.81,48.65,89.93,58.18,140.09.85,4.51,7.88,3.37,7-1.15-8.14-42.82-24.55-82.73-45.89-120.61-24.82-44.06-56.24-79.9-62.46-132-2.9-24.3-1.36-49.18-2.45-73.63a609.77,609.77,0,0,0-8.18-75c-7.8-45.87-25.14-88.37-44.38-130.46-1.91-4.18-8.38-1.21-6.47,3Z"/><path fill="#077370" d="M3502.85,2276.59q-44.67-8.4-89.13-17.77,2,2.28,4.11,4.48,42,8.77,84.08,16.72a2,2,0,0,0,2,.38l1.17.22c1.75.33,2.34-1.69,1.5-2.83q38.79-42.06,75.28-86.13c-.2-1.62-.41-3.23-.6-4.84Q3543.19,2232.71,3502.85,2276.59Z"/><path fill="#077370" d="M3460.11,2203a1.7,1.7,0,0,0,2.88.1,742.12,742.12,0,0,1,50.07-66.32c10.51-12.43,21.63-24.34,32.13-36.75-.77-.89-1.53-1.8-2.32-2.69-10.64,12.66-21.95,24.78-32.7,37.36a712.76,712.76,0,0,0-49,64.8c-18.33-.86-36.83-4.95-55-7.65l-17.75-2.65c.05,1.21.11,2.42.17,3.62l17.2,2.57C3423.73,2198.06,3442,2202.07,3460.11,2203Z"/><path fill="#077370" d="M3451.23,2139.9l.22-.29a1.6,1.6,0,0,0,1.51-2q31.61-41.18,61.76-83.42c-.26-1.74-.47-3.48-.63-5.21q-31.32,44-64.2,86.78l-72.06-13.31a40.44,40.44,0,0,1,2.79,4.13l67.38,12.45A1.83,1.83,0,0,0,3451.23,2139.9Z"/><path fill="#077370" d="M3450.09,2056.76l-.44-.08q24.49-43.18,53-83.82c-.49-.71-.91-1.41-1.44-2.12l-.77-1q-29.34,41.74-54.53,86.24-58.92-10.8-118.18-19.65c.07,1.21.18,2.42.3,3.64q61,9.13,121.65,20.29C3452,2060.72,3452.33,2057.17,3450.09,2056.76Z"/><path fill="#077370" d="M3436,1978.33a1.68,1.68,0,0,0,.7-.77q18-22.68,34.32-46.52c-.55-1.31-1.07-2.63-1.57-4q-16.76,24.54-35.23,47.88-41.13-3.32-81.77-10.41c-.48,1.12-1,2.25-1.48,3.35q41.28,7.23,83.13,10.62A1.71,1.71,0,0,0,3436,1978.33Z"/><path fill="#077370" d="M3410.48,1904.81q13.58-28,28.21-55.46c-.79-1-1.6-2-2.42-3q-14.59,27.4-28.2,55.31-29.55-5.93-58.86-12.93c.24,1.27.48,2.54.74,3.81q28.58,6.78,57.37,12.58A1.9,1.9,0,0,0,3410.48,1904.81Z"/><path fill="#028989" d="M3541.83,2352.24c-1.52-15.26,3.92-30.38,10.86-44s15.49-26.58,21-40.9c8-21.05,12.07-47.6,8.9-70-1.66-11.65-2.53-22.94-4.47-34-1.83-10.4-4.61-20.61-9.9-30.71-9-17.32-21.84-31.66-35-45.93-8.54-9.29-16.39-18.83-18.4-31.66-4.67-29.84,6.64-57.33-13.58-84.26-7.09-9.45-16.53-17-23.24-26.72-12.62-18.29-14.13-41.81-21.6-62.75a114.37,114.37,0,0,0-47.42-58.49c-12.91-7.93-28.59-13.35-41.31-3a51.35,51.35,0,0,0-10.65,11.89c2.07,2.92,4.07,5.68,5.85,8.19,17.41,24.51,36.06,48.6,47.71,76.57a173.5,173.5,0,0,1,13,76.73c-1.08,18.05-5,36.17-2.4,54.07,4.94,34.35,32.07,60.4,54.69,86.7,30,34.93,54.69,75.63,64.53,120.65,6.69,30.62,5.91,63.39-3.66,93C3538.48,2349.09,3540.2,2350.65,3541.83,2352.24Z" opacity=".2"/><path fill="#028989" d="M3821.39,2136.44c-1.78-18-11.74-34.24-15-52-9.54-51.7,40.62-106.72,15.34-157-7.14-14.2-21-24.38-36.3-28.79-7.39-2.13-15.41-3-22.75-.66-8.33,2.65-14.85,9.06-20.93,15.36s-12,12.67-17.93,19.09a15.53,15.53,0,0,1,3.27,0c10,1,17.1,11,16,22.39s-10.17,19.74-20.13,18.73-17.11-11-16-22.4c0-.11,0-.21,0-.31-13,14.45-25.76,29.69-31.75,48.12s-4.66,38.48-4.9,58c-.52,43.44-10.77,89.48-41.8,119.85-8.71,8.52-18.92,15.68-26,25.58-5.81,8.1-9.12,17.6-11,27.32-1.61,8.36-5.13,15.9-6.31,24.3a100.76,100.76,0,0,0,8.42,56.37c6,12.86,11.51,26,17.53,38.66,1.54,3.21,2.63,7.09,1,10.25,2.2-4.23,17-4.15,21.08-5.15,5-1.25,10.34-3,15.3-4.7,11.78-3.94,24.26-4.14,36.49-6.93,16.29-3.7,34.07-14,46.64-24.82a52.51,52.51,0,0,0,11.1-14.18c.77-1.36,1.49-2.77,2.2-4.2-.89,0-1.79-.09-2.71-.18-12.87-1.31-22.74-8-22-15s11.72-11.53,24.59-10.22a41.52,41.52,0,0,1,9,1.92c2.15-7.34,3.83-14.47,5.17-20.54,2.38-10.71,4-21.91,9.59-31.32s14.85-16.13,23.13-23.41C3809.07,2185.24,3823.74,2160.31,3821.39,2136.44Z"/><path fill="#077370" d="M3768.48,1964.81c-6.31,41.22-10.83,81.43-25,120.9-15,41.71-33.42,82.59-53.25,122.21-9.18,18.33-19.25,36.08-27.62,54.82-8.89,19.93-22.65,37.62-33.47,56.53-19.16,33.46-32.64,70.48-33.1,109.34-.05,4.12,6.35,4.24,6.39.1.5-42.21,16.95-80.56,38.13-116.36,10.23-17.28,21.73-33.33,29.94-51.73,9.2-20.61,20.69-40.18,30.68-60.43a1192.62,1192.62,0,0,0,48.43-112.68c14.6-39.35,18.73-79.72,25-120.9.62-4-5.51-5.87-6.13-1.8Z"/><path fill="#077370" d="M3738.37,2114.14q34.35-13.51,68.49-27.57c-.16-.73-.36-1.44-.5-2.17-.06-.33-.09-.67-.15-1q-34.77,14.28-69.74,28.09-33.39-35.45-66.11-71.52c0,1.59,0,3.16,0,4.74q32.39,35.53,65.28,70.57A1.6,1.6,0,0,0,3738.37,2114.14Z"/><path fill="#077370" d="M3758.41,2054.35l53.87-24.38c.39-1.35.8-2.7,1.21-4l-56.61,25.62C3755,2052.39,3756.55,2055.19,3758.41,2054.35Z"/><path fill="#077370" d="M3755,2048q-31-39.78-64.58-77.34c-.65.88-1.29,1.77-1.91,2.66q33.35,37.35,64.17,76.87C3754,2051.77,3756.29,2049.56,3755,2048Z"/><path fill="#077370" d="M3718,2162.66c12.85-.77,24.83-5.46,37-9.38,14.1-4.56,28.33-8.72,42.63-12.62q11.73-3.19,23.55-6c-.14-1.06-.3-2.11-.48-3.16q-10.52,2.55-21,5.33c-13.37,3.56-26.64,7.46-39.84,11.59s-26.26,9.7-40.06,10.91a1.53,1.53,0,0,0-.38-1.26q-25.63-30-53.08-58.38c-.24,1.29-.5,2.56-.76,3.84Q3692,2131,3716.86,2160C3716.05,2160.94,3716.39,2162.75,3718,2162.66Z"/><path fill="#077370" d="M3691.3,2209.92l-44.85-56c-.58,1-1.16,1.93-1.78,2.87l44.31,55.3C3690.27,2213.73,3692.58,2211.51,3691.3,2209.92Z"/><path fill="#077370" d="M3692.52,2211.74c-2,.45-1.24,3.56.77,3.1q50.85-11.55,102.55-18.23c1.18-1.18,2.34-2.41,3.48-3.67Q3745.53,2199.76,3692.52,2211.74Z"/><path fill="#077370" d="M3661.16,2274a1.71,1.71,0,0,0,.51-2.51q-28.23-36.48-55.48-73.69c-.72.82-1.41,1.66-2.08,2.52q27.16,37,55.24,73.36a1.26,1.26,0,0,0,1.73.37,1.63,1.63,0,0,0,1.42,2.8q48-11.12,96.27-20.63c.06-.29.14-.62.2-.91.19-.83.36-1.65.53-2.48q-49,9.67-97.77,20.91A1.58,1.58,0,0,0,3661.16,2274Z"/><path fill="#077370" d="M3626.52,2330l-42.21-64.16c0,2,0,3.93.06,5.9l40.28,61.21a1.71,1.71,0,0,0,2.72.14l94.3-13L3730,2319c.55-.46,1.14-.9,1.67-1.36.87-.75,1.7-1.58,2.53-2.43L3720.9,2317Z"/><path fill="#028989" d="M3821.39,2136.44c-1.78-18-11.74-34.24-15-52-9.54-51.7,40.62-106.72,15.34-157-7.14-14.2-21-24.38-36.3-28.79a53.7,53.7,0,0,0-8.54-1.76c9.3,37.32,11.43,76.46-2.89,111.62-18.63,45.71-63,79.67-72.06,128.2-6.45,34.53,6.39,71.08-3.13,104.89-6.13,21.78-20.88,39.91-35.27,57.36l-47.66,57.81c5.3-1.79,14.35-1.93,17.37-2.68,5-1.25,10.34-3,15.3-4.7,11.78-3.94,24.26-4.14,36.49-6.93,16.29-3.7,34.07-14,46.64-24.82a52.51,52.51,0,0,0,11.1-14.18c.77-1.36,1.49-2.77,2.2-4.2-.89,0-1.79-.09-2.71-.18-12.87-1.31-22.74-8-22-15s11.72-11.53,24.59-10.22a41.52,41.52,0,0,1,9,1.92c2.15-7.34,3.83-14.47,5.17-20.54,2.38-10.71,4-21.91,9.59-31.32s14.85-16.13,23.13-23.41C3809.07,2185.24,3823.74,2160.31,3821.39,2136.44Z" opacity=".2"/><path fill="#1da49d" d="M3398.45,2316.46c-51-35.61-76.52-84.94-83-146.13-2.1-19.72-3.39-40.28-13.09-57.57-8.13-14.48-21.46-25.29-31-38.9-18.55-26.59-20.78-60.81-22-93.31a47.86,47.86,0,0,0-22.84,13.2c-30.82,32.4-12.75,85.74,6.8,118.71,5.43,9.16,11.71,18,14.83,28.19,2.58,8.4,2.86,17.22,3.06,26,.05,2,.09,4,.16,6a31.78,31.78,0,0,1,7.34-.84c11,0,19.88,5.29,19.88,11.81s-8.9,11.81-19.88,11.81a32.85,32.85,0,0,1-4.83-.36c6.68,33.36,25.89,63.24,46.85,89.64,12.05,15.18,22.63,29.73,38.58,41.22,16.12,11.62,34.23,20.43,52.79,27.4,6.69,2.52,69.74,18.74,68.27,24.32,1.6-6.07,3.51-12.32,5.47-18.67C3443.68,2344.48,3420.21,2331.65,3398.45,2316.46Z" opacity=".2"/><path fill="#f9a51a" d="M3718.78,2339h-338c-.87,19.49-3.49,116.38,25.2,203.27,25,75.73,48.6,105.43,65.8,119.2a27.78,27.78,0,0,0,16.68,6.1v0H3611.1v0a27.75,27.75,0,0,0,16.68-6.1c17.2-13.77,40.8-43.47,65.8-119.2C3722.27,2455.37,3719.65,2358.48,3718.78,2339Z"/><g style="mix-blend-mode:overlay" opacity=".51"><path fill="#f9a51a" d="M3398.6,2517.09c105.27-44.43,212.25-84.75,320-123.13,1.14-25.52.64-44.93.29-53.55-111.25,39.48-221.79,80.89-330.59,126.5C3390.82,2483.29,3394.19,2500.22,3398.6,2517.09Z"/><path fill="#f9a51a" d="M3419.49,2579.19c96.15-40,193.66-76.71,291.78-111.79,1.32-8.37,2.43-16.59,3.36-24.6-101.89,36.32-203.16,74.33-303,115.83Q3415.61,2569.63,3419.49,2579.19Z"/><path fill="#f9a51a" d="M3693.58,2542.26c3.45-10.45,6.44-21,9-31.63-89.65,32.77-178.68,67.13-266.53,104.32,11.1,20.64,21.39,33.44,30.31,41.8,71.58-30.1,143.94-58.33,216.78-85.34C3686.61,2562.53,3690.08,2552.86,3693.58,2542.26Z"/></g><path fill="#f9a51a" d="M3718.78,2339h-72.12c2.5,61.24-1.92,122.68-16.28,182.17-12.44,51.53-32.66,101.55-60.7,146.43h41.42v0a27.75,27.75,0,0,0,16.68-6.1c17.2-13.77,40.8-43.47,65.8-119.2C3722.27,2455.37,3719.65,2358.48,3718.78,2339Z" opacity=".19"/><rect width="365.55" height="46.85" x="3365.39" y="2328.21" fill="#fcd332" rx="2.93"/><path fill="#6cb1a9" d="M3123.83,2471.33s.24,7.62.82,19.76l-.25.08c-26.14-.34-28,40.3-25.59,60,3.34,27.89,14.76,62.7,39.87,78.75,2.77,12.63,6,22,9.81,25.82,5.89,5.89,13.3,9.58,21.87,11.86h79.51c8.57-2.28,16-6,21.87-11.86,19.35-19.38,24.66-184.46,24.66-184.46Zm-3.44,115.34c-4.25-19.86-5.85-40.36-5.95-60.64,0-9.86,14.88-9.77,15.24,0,.7,19,3.38,37.49,6.85,56.19C3138.48,2592.72,3122.66,2597.28,3120.39,2586.67Z"/><path fill="#e8f3e4" d="M3161.31,2418.55c-5-14.12-5.47-29.75,2.12-43,9.45-16.45,28.29-24.47,44-35.15a128.5,128.5,0,0,0,26-23.48c5.27-6.27,10.12-13.52,10.56-21.71s-3.6-15.93-8.64-22.36-11.17-12-16-18.52a61.23,61.23,0,0,1-10.07-50c-.71,12.85,9.1,24.2,20.39,30.34s24.2,8.52,36.28,12.91a114.48,114.48,0,0,1,56.55,45.08c6.25,9.68,11.13,20.93,10,32.4-1.62,16.86-16,30.15-31.7,36.39s-33,7-49.77,9.21-34.19,6.34-46.73,17.71c-13.1,11.87-3.61,20.55.81,34.72.85,2.74,1.63,5.66.91,8.44-1.2,4.58-5.92,7.17-8.79,10.93-4.46,5.85-4.06,13.94-3.46,21.27a216.76,216.76,0,0,1-22-25.57A76.27,76.27,0,0,1,3161.31,2418.55Z" opacity=".7"/><rect width="72.57" height="9.82" x="2212.13" y="872.99" fill="#fdd135" rx="4.84"/><rect width="148.51" height="9.82" x="2307.67" y="872.99" fill="#fdd135" rx="4.84"/><rect width="72.57" height="9.82" x="2242.93" y="912.75" fill="#fff" rx="4.84"/><rect width="72.57" height="9.82" x="2242.93" y="949.66" fill="#fff" rx="4.84"/><rect width="72.57" height="9.82" x="2242.93" y="986.56" fill="#fff" rx="4.84"/><rect width="72.57" height="9.82" x="2242.93" y="1023.47" fill="#fff" rx="4.84"/><rect width="72.57" height="9.82" x="2212.13" y="1062.52" fill="#ffc809" rx="4.84"/><rect width="148.51" height="9.82" x="2307.67" y="1062.52" fill="#ffc809"/><rect width="83.34" height="9.82" x="2631.78" y="1102.28" fill="#fff" rx="4.84"/><rect width="83.34" height="9.82" x="2631.78" y="1139.19" fill="#fff" rx="4.84"/><rect width="83.34" height="9.82" x="2631.78" y="1176.09" fill="#fff" rx="4.84"/><path fill="#1bb9ec" d="M2428.08,924.59h-70.34a4.9,4.9,0,0,1-4.9-4.91v-2.84a4.9,4.9,0,0,1,4.9-4.91h70.34a4.9,4.9,0,0,1,4.9,4.91v2.84A4.9,4.9,0,0,1,2428.08,924.59Z"/><path fill="#fff" d="M2568.44,924.59H2498.1a4.9,4.9,0,0,1-4.9-4.91v-2.84a4.9,4.9,0,0,1,4.9-4.91h70.34a4.91,4.91,0,0,1,4.91,4.91v2.84A4.91,4.91,0,0,1,2568.44,924.59Z"/><path fill="#1bb9ec" d="M2494.14,959.46H2356.22a4.91,4.91,0,0,1-4.91-4.91v-2.84a4.91,4.91,0,0,1,4.91-4.91h137.92a4.9,4.9,0,0,1,4.9,4.91v2.84A4.9,4.9,0,0,1,2494.14,959.46Z"/><path fill="#1bb9ec" d="M2657.71,961.27H2519.79a4.91,4.91,0,0,1-4.91-4.91v-2.84a4.91,4.91,0,0,1,4.91-4.91h137.92a4.9,4.9,0,0,1,4.9,4.91v2.84A4.9,4.9,0,0,1,2657.71,961.27Z"/><path fill="#1bb9ec" d="M2706.93,998H2609a4.9,4.9,0,0,1-4.9-4.91v-2.83a4.91,4.91,0,0,1,4.9-4.92h97.93a4.91,4.91,0,0,1,4.91,4.92V993A4.91,4.91,0,0,1,2706.93,998Z"/><path fill="#fff" d="M2476,1034.64H2344a4.91,4.91,0,0,1-4.91-4.92v-2.83A4.91,4.91,0,0,1,2344,1022h132a4.91,4.91,0,0,1,4.9,4.92v2.83A4.91,4.91,0,0,1,2476,1034.64Z"/><path fill="#1bb9ec" d="M2568.11,998h-215.3a4.91,4.91,0,0,1-4.91-4.91v-2.83a4.91,4.91,0,0,1,4.91-4.92h215.3a4.91,4.91,0,0,1,4.91,4.92V993A4.91,4.91,0,0,1,2568.11,998Z"/><path fill="#f9a337" d="M2708.39,1034.64H2545.88a4.91,4.91,0,0,1-4.91-4.92v-2.83a4.91,4.91,0,0,1,4.91-4.92h162.51a4.91,4.91,0,0,1,4.91,4.92v2.83A4.91,4.91,0,0,1,2708.39,1034.64Z"/><path fill="#f9a337" d="M2474.32,924.59h-26.55a4.91,4.91,0,0,1-4.91-4.91v-2.84a4.91,4.91,0,0,1,4.91-4.91h26.55a4.9,4.9,0,0,1,4.9,4.91v2.84A4.9,4.9,0,0,1,2474.32,924.59Z"/><path fill="#fff" d="M2617.37,924.59h-26.55a4.91,4.91,0,0,1-4.91-4.91v-2.84a4.91,4.91,0,0,1,4.91-4.91h26.55a4.9,4.9,0,0,1,4.9,4.91v2.84A4.9,4.9,0,0,1,2617.37,924.59Z"/><path fill="#f9a337" d="M2666.8,924.59h-26.54a4.91,4.91,0,0,1-4.91-4.91v-2.84a4.91,4.91,0,0,1,4.91-4.91h26.54a4.91,4.91,0,0,1,4.91,4.91v2.84A4.91,4.91,0,0,1,2666.8,924.59Z"/><path fill="#1bb9ec" d="M2524.65,1034.64H2498.1a4.91,4.91,0,0,1-4.9-4.92v-2.83a4.91,4.91,0,0,1,4.9-4.92h26.55a4.91,4.91,0,0,1,4.91,4.92v2.83A4.91,4.91,0,0,1,2524.65,1034.64Z"/><path fill="#f9a337" d="M2470.07,1113.11h129.45a4.91,4.91,0,0,0,4.91-4.92v-2.54a4.91,4.91,0,0,0-4.91-4.92H2470.07a4.91,4.91,0,0,0-4.91,4.92v2.54A4.91,4.91,0,0,0,2470.07,1113.11Z"/><rect width="139.27" height="12.37" x="2318.38" y="1100.73" fill="#898989"/><rect width="139.27" height="12.38" x="2234.28" y="1136.58" fill="#898989"/><path fill="#1bb9ec" d="M2494.56,1184.79H2600.1a4.91,4.91,0,0,0,4.91-4.91v-2.55a4.91,4.91,0,0,0-4.91-4.91H2494.56a4.91,4.91,0,0,0-4.91,4.91v2.55A4.91,4.91,0,0,0,2494.56,1184.79Z"/><path fill="#1bb9ec" d="M2397.16,1149.56h202.4a4.91,4.91,0,0,0,4.91-4.91v-2.56a4.91,4.91,0,0,0-4.91-4.91h-202.4a4.91,4.91,0,0,0-4.91,4.91v2.56A4.91,4.91,0,0,0,2397.16,1149.56Z"/><rect width="212.22" height="12.38" x="2220.83" y="1172.42" fill="#f79744"/><rect width="34.28" height="12.37" x="2275.52" y="1100.73" fill="#898989"/><path fill="#898989" d="M2197.07,1149H2219a6.19,6.19,0,0,0,6.18-6.19h0a6.18,6.18,0,0,0-6.18-6.18h-21.91a6.18,6.18,0,0,0-6.18,6.18h0A6.18,6.18,0,0,0,2197.07,1149Z"/><rect width="34.27" height="12.38" x="2443.81" y="1172.42" fill="#fff"/><rect width="34.28" height="12.37" x="2232.13" y="1100.73" fill="#898989"/><path fill="#fff" d="M2181,915.66l15.93-8.21v2.37l-13.43,6.74v.07l13.43,6.73v2.38L2181,917.52Z"/><path fill="#fff" d="M2199.18,927.11l9.58-24.92h2.33l-9.61,24.92Z"/><path fill="#fff" d="M2229.19,917.56l-15.93,8.18v-2.38l13.53-6.73v-.07l-13.53-6.74v-2.37l15.93,8.18Z"/><rect width="123.17" height="14.97" x="2729.11" y="1459.49" fill="#f9a337" rx="7.37"/><rect width="223.07" height="14.97" x="2733.06" y="1499.27" fill="#f9a337" rx="7.37"/><rect width="120.33" height="14.97" x="3014.54" y="1499.27" fill="#7bc3cb" rx="7.37"/><rect width="226.19" height="14.97" x="2733.06" y="1530.89" fill="#f9a337" rx="7.37"/><rect width="118.22" height="14.97" x="3016.65" y="1530.89" fill="#f4a1a9" rx="7.37"/><rect width="227.94" height="14.97" x="2733.06" y="1562.52" fill="#f9a337" rx="7.37"/><path fill="#f4a1a9" d="M3127.4,1577.49H3025.62a7.47,7.47,0,0,1-7.47-7.48h0a7.48,7.48,0,0,1,7.47-7.49H3127.4a7.48,7.48,0,0,1,7.47,7.49h0A7.48,7.48,0,0,1,3127.4,1577.49Z"/><path fill="#fff" d="M2716,1506.75a7.48,7.48,0,1,1-7.47-7.48A7.47,7.47,0,0,1,2716,1506.75Z"/><path fill="#fff" d="M2716,1538.38a7.48,7.48,0,1,1-7.47-7.49A7.47,7.47,0,0,1,2716,1538.38Z"/><path fill="#fff" d="M2716,1570a7.48,7.48,0,1,1-7.47-7.49A7.47,7.47,0,0,1,2716,1570Z"/><rect width="118.94" height="10.94" x="2601.28" y="1245.7" fill="#1bb9ec" rx="5.38"/><rect width="118.94" height="10.94" x="2601.28" y="1286.78" fill="#fff" rx="5.38"/><rect width="118.94" height="10.94" x="2601.28" y="1327.86" fill="#1bb9ec" rx="5.38"/><path fill="#f79744" d="M2459,1257.75h112.61a5.46,5.46,0,0,0,5.46-5.46v-2.84a5.47,5.47,0,0,0-5.46-5.47H2459a5.46,5.46,0,0,0-5.46,5.47v2.84A5.45,5.45,0,0,0,2459,1257.75Z"/><rect width="123.53" height="13.77" x="2323.28" y="1243.98" fill="#898989"/><rect width="123.53" height="13.78" x="2248.68" y="1283.88" fill="#898989"/><path fill="#fdd135" d="M2480.67,1337.55h91.4a5.47,5.47,0,0,0,5.46-5.47v-2.84a5.47,5.47,0,0,0-5.46-5.47h-91.4a5.47,5.47,0,0,0-5.47,5.47v2.84A5.47,5.47,0,0,0,2480.67,1337.55Z"/><path fill="#898989" d="M2394.27,1298.33h177.32a5.47,5.47,0,0,0,5.46-5.47V1290a5.47,5.47,0,0,0-5.46-5.47H2394.27a5.47,5.47,0,0,0-5.46,5.47v2.84A5.47,5.47,0,0,0,2394.27,1298.33Z"/><rect width="188.24" height="13.78" x="2236.76" y="1323.77" fill="#f79744"/><rect width="30.41" height="13.77" x="2285.27" y="1243.98" fill="#898989"/><rect width="30.4" height="13.78" x="2210.2" y="1283.88" fill="#898989"/><rect width="30.4" height="13.78" x="2434.55" y="1323.77" fill="#fff"/><rect width="30.41" height="13.77" x="2246.78" y="1243.98" fill="#898989"/><rect width="37.58" height="5.09" x="1057.49" y="1259.3" fill="#fdd135" rx="2.51"/><path fill="#fdd135" d="M1109.47,1259.3h71.89a2.51,2.51,0,0,1,2.51,2.51v.08a2.51,2.51,0,0,1-2.51,2.51h-71.89a2.51,2.51,0,0,1-2.51-2.51v-.08a2.5,2.5,0,0,1,2.5-2.5Z"/><rect width="37.58" height="5.09" x="1073.45" y="1279.89" fill="#fff" rx="2.51"/><rect width="219.73" height="5.09" x="1122.92" y="1279.89" fill="#1bb9ec" rx="2.51"/><path fill="#fff" d="M1076,1299h32.57a2.51,2.51,0,0,1,2.51,2.51v.08a2.51,2.51,0,0,1-2.51,2.51H1076a2.5,2.5,0,0,1-2.5-2.5v-.08A2.51,2.51,0,0,1,1076,1299Z"/><rect width="219.73" height="5.09" x="1122.92" y="1299" fill="#1bb9ec" rx="2.51"/><path fill="#fff" d="M1076,1318.11h32.57a2.51,2.51,0,0,1,2.51,2.51v.08a2.51,2.51,0,0,1-2.51,2.51H1076a2.5,2.5,0,0,1-2.5-2.5v-.08A2.51,2.51,0,0,1,1076,1318.11Z"/><path fill="#1bb9ec" d="M1125.43,1318.11h214.72a2.51,2.51,0,0,1,2.51,2.51v.08a2.51,2.51,0,0,1-2.51,2.51H1125.43a2.5,2.5,0,0,1-2.5-2.5v-.08A2.51,2.51,0,0,1,1125.43,1318.11Z"/><rect width="37.58" height="5.09" x="1073.45" y="1337.22" fill="#fff" rx="2.51"/><rect width="37.58" height="5.09" x="1057.49" y="1357.45" fill="#fdd135" rx="2.51"/><rect width="76.9" height="5.09" x="1106.97" y="1357.45" fill="#fdd135" rx="2.51"/><rect width="141.69" height="5.09" x="1122.92" y="1378.04" fill="#fff" rx="2.51"/><rect width="141.69" height="5.09" x="1122.92" y="1397.15" fill="#fff" rx="2.51"/><rect width="12.47" height="5.09" x="1098.55" y="1397.15" fill="#1bb9ec" rx="2.51"/><path fill="#1bb9ec" d="M1076,1416.26h32.57a2.51,2.51,0,0,1,2.51,2.51v.08a2.51,2.51,0,0,1-2.51,2.51H1076a2.51,2.51,0,0,1-2.51-2.51v-.08a2.5,2.5,0,0,1,2.5-2.5Z"/><rect width="141.69" height="5.09" x="1122.92" y="1416.26" fill="#fff" rx="2.51"/><rect width="69.44" height="5.09" x="1274.81" y="1378.04" fill="#fff" rx="2.51"/><rect width="69.44" height="5.09" x="1274.81" y="1397.15" fill="#fff" rx="2.51"/><path fill="#fff" d="M1277.31,1416.26h64.43a2.51,2.51,0,0,1,2.51,2.51v.08a2.51,2.51,0,0,1-2.51,2.51h-64.43a2.51,2.51,0,0,1-2.51-2.51v-.08A2.5,2.5,0,0,1,1277.31,1416.26Z"/><rect width="219.73" height="5.09" x="1122.92" y="1337.22" fill="#1bb9ec" rx="2.51"/><polygon fill="#fff" points="1180.36 1021.84 1103.49 944.11 1113.59 934.11 1179.53 1000.79 1266.32 898.05 1277.17 907.24 1180.36 1021.84"/><rect width="570.02" height="469.63" x="1580.79" y="1488.03" fill="#18214f" rx="6.19"/><rect width="128.92" height="18.18" x="1645.97" y="1528.95" fill="#1bb9ec" rx="8.95"/><rect width="128.92" height="18.18" x="1679.5" y="1582.95" fill="#1bb9ec" rx="8.95"/><rect width="274.6" height="18.18" x="1825.47" y="1582.95" fill="#3c3d88" rx="8.95"/><rect width="193.66" height="18.18" x="1679.5" y="1621.37" fill="#1bb9ec" rx="8.95"/><rect width="193.66" height="18.18" x="1906.41" y="1621.37" fill="#3c3d88" rx="8.95"/><rect width="248.99" height="18.18" x="1679.5" y="1659.79" fill="#1bb9ec" rx="8.95"/><path fill="#3c3d88" d="M2092.25,1678H1985.72c-4.32,0-7.82-4.07-7.82-9.09h0c0-5,3.5-9.09,7.82-9.09h106.53c4.32,0,7.82,4.07,7.82,9.09h0C2100.07,1673.9,2096.57,1678,2092.25,1678Z"/><path fill="#fff" d="M1661.62,1592c0,5-3.5,9.09-7.82,9.09s-7.83-4.07-7.83-9.09,3.5-9.09,7.83-9.09S1661.62,1587,1661.62,1592Z"/><path fill="#fff" d="M1661.62,1630.46c0,5-3.5,9.09-7.82,9.09s-7.83-4.07-7.83-9.09,3.5-9.09,7.83-9.09S1661.62,1625.44,1661.62,1630.46Z"/><path fill="#fff" d="M1661.62,1668.88c0,5-3.5,9.09-7.82,9.09s-7.83-4.07-7.83-9.09,3.5-9.09,7.83-9.09S1661.62,1663.86,1661.62,1668.88Z"/><path fill="#c44041" d="M1860.77,1709.44H1651c-2.78,0-5-2.61-5-5.84h0c0-3.23,2.25-5.84,5-5.84h209.77c2.78,0,5,2.61,5,5.84h0C1865.8,1706.83,1863.55,1709.44,1860.77,1709.44Z"/><rect width="128.92" height="18.18" x="1679.5" y="1776.85" fill="#1bb9ec" rx="8.95"/><path fill="#3c3d88" d="M1917.87,1795h-84.58c-4.32,0-7.82-4.07-7.82-9.09h0c0-5,3.5-9.09,7.82-9.09h84.58c4.32,0,7.83,4.07,7.83,9.09h0C1925.7,1791,1922.19,1795,1917.87,1795Z"/><rect width="132.6" height="18.18" x="1679.5" y="1815.27" fill="#1bb9ec" rx="8.95"/><rect width="274.6" height="18.18" x="1825.47" y="1815.27" fill="#3c3d88" rx="8.95"/><rect width="248.99" height="18.18" x="1679.5" y="1853.68" fill="#1bb9ec" rx="8.95"/><path fill="#f6a4ab" d="M2092.25,1871.86H1957.11c-4.32,0-7.83-4.07-7.83-9.09h0c0-5,3.51-9.09,7.83-9.09h135.14c4.32,0,7.82,4.07,7.82,9.09h0C2100.07,1867.79,2096.57,1871.86,2092.25,1871.86Z"/><path fill="#fff" d="M1661.62,1785.94c0,5-3.5,9.09-7.82,9.09s-7.83-4.07-7.83-9.09,3.5-9.09,7.83-9.09S1661.62,1780.92,1661.62,1785.94Z"/><path fill="#fff" d="M1661.62,1824.35c0,5-3.5,9.09-7.82,9.09s-7.83-4.06-7.83-9.09,3.5-9.08,7.83-9.08S1661.62,1819.33,1661.62,1824.35Z"/><path fill="#fff" d="M1661.62,1862.77c0,5-3.5,9.09-7.82,9.09s-7.83-4.07-7.83-9.09,3.5-9.09,7.83-9.09S1661.62,1857.75,1661.62,1862.77Z"/><path fill="#c44041" d="M1860.77,1903.34H1651c-2.78,0-5-2.62-5-5.84h0c0-3.23,2.25-5.85,5-5.85h209.77c2.78,0,5,2.62,5,5.85h0C1865.8,1900.72,1863.55,1903.34,1860.77,1903.34Z"/><path fill="#f9a239" d="M2938.8,2675.21V2159.12c0-319.31-234.71-578.17-524.25-578.17h-141.1c-289.54,0-524.25,258.86-524.25,578.18v516.08Z"/><path fill="#21657e" d="M976.71,2715.19h0c0,24.75,18.73,44.81,41.84,44.81H3807c23.11,0,41.84-20.06,41.84-44.81h0c0-24.75-18.73-44.81-41.84-44.81H1018.55C995.44,2670.38,976.71,2690.44,976.71,2715.19Z"/><polygon fill="#ee4f50" points="1976.87 2503.22 1952.27 2656.02 2734.79 2654.56 2727.51 2511.61 1981.41 2505.77 1976.87 2503.22"/><path fill="#212c5e" d="M2692.79,2680.3c-8-65.9-14.9-113.62-14.9-113.62l-643.77-9.13s-10.3,52.37-20.77,122.75Z"/><path fill="#ee4f50" d="M2697.42,1747.6c136.42,51.69,199.77,377.75,286.77,472.78,105.32,115,92.17,237,14.92,273.21-104.76,49.1-285.77,38.11-363.4-20.28C2669.76,2220.52,2677.9,2000.14,2697.42,1747.6Z"/><path fill="#ee4f50" d="M2005.35,1747.6c-167.26,64-251.19,410.49-332.65,524.49-123.77,173.24-34.39,353.56,127.29,323.21,61.08-11.47,92.57-30.71,132-51.91,39.77-21.36,71.84-59.92,44.38-109.9L1944,2335l-24.48-20.24,144.31-170.45Z"/><path fill="#ee4f50" d="M1992.17,1756.76c-38.79,28.17,12.08,653.33,22.89,717,10.53,62.06,25,85.51,25,85.51l620.21,3.7s29-34.91,31.6-75c4.88-74.32,89.54-624.42,32.64-725.68-50.52-44.28-359.2-146.1-359.2-146.1S2068.82,1701.11,1992.17,1756.76Z"/><path fill="#ee4f50" d="M2868.65,2286.31c-115.91-5.34-283.89,22.77-392.76,41.83,5,45.14-5.76,106.65,13,145.17,184.31,36.37,414.52,90.1,505.37,10.37C3104.78,2386.72,2991.16,2291.94,2868.65,2286.31Z"/><path fill="#c44041" d="M1947.39,2327.63a4,4,0,0,1-1.35-.22c-56.61-19-98.06-24.6-155.42-32.39-22.33-3-47.63-6.46-77.32-11.14a4.09,4.09,0,0,1-3.45-4.67,4.14,4.14,0,0,1,4.77-3.39c29.6,4.67,54.85,8.09,77.14,11.12,57.82,7.84,99.6,13.51,157,32.75a4.05,4.05,0,0,1,2.59,5.18A4.14,4.14,0,0,1,1947.39,2327.63Z"/><path fill="#c44041" d="M1847.82,2287.81a4.14,4.14,0,0,1-2.39-.75c-29.6-20.55-40.5-27.61-71.6-44.58a4,4,0,0,1-1.62-5.55,4.2,4.2,0,0,1,5.66-1.59c31.46,17.16,42.47,24.3,72.36,45a4,4,0,0,1,1,5.69A4.16,4.16,0,0,1,1847.82,2287.81Z"/><path fill="#c44041" d="M2669.93,2300.83a4.13,4.13,0,0,1-4.07-3.27,4.08,4.08,0,0,1,3.25-4.81c90.22-17.95,184.26-31.8,260.85-11.67a4.07,4.07,0,0,1,2.94,5,4.17,4.17,0,0,1-5.09,2.89c-74.94-19.7-167.83-6-257,11.78A4,4,0,0,1,2669.93,2300.83Z"/><path fill="#c44041" d="M2799.14,2279.11a4.13,4.13,0,0,1-4-3,4.08,4.08,0,0,1,2.93-5c18-4.77,38.7-13.12,60.61-22,8.85-3.57,17.76-7.17,26.57-10.55a4.16,4.16,0,0,1,5.38,2.31,4.06,4.06,0,0,1-2.36,5.29c-8.75,3.37-17.62,7-26.43,10.5-22.16,9-43.09,17.41-61.61,22.31A4,4,0,0,1,2799.14,2279.11Z"/><path fill="#c44041" d="M2364.88,1583.89c-52.16,15.79-95.57,26.72-151.87,79.29-2.63,63.78,26.63,123.36,60.57,164.62l91.73-47,97,47.83c35.81-53.83,64.74-105.28,59.7-157.72C2483.38,1627,2427,1610.14,2364.88,1583.89Z"/><path fill="#faba97" d="M2291.07,1642.94l-21.49,4c-1.13,22.74,59.26,115.26,95.73,133.88,45.09-21.35,107.83-107.08,106.82-134.24l-63.94-10.94Z"/><path fill="#c44041" d="M2687,2073.21h-225.6a4.12,4.12,0,0,1-4.16-4.09v-56.88a4.11,4.11,0,0,1,4.16-4.08H2687a4.11,4.11,0,0,1,4.16,4.08v56.88A4.12,4.12,0,0,1,2687,2073.21Z"/><path fill="#fff" d="M2387.31,1817a9.67,9.67,0,1,0-9.67,9.49A9.58,9.58,0,0,0,2387.31,1817Z"/><path fill="#fff" d="M2387.31,1906.85a9.67,9.67,0,1,0-9.67,9.5A9.58,9.58,0,0,0,2387.31,1906.85Z"/><path fill="#fff" d="M2387.31,1996.67a9.67,9.67,0,1,0-9.67,9.5A9.58,9.58,0,0,0,2387.31,1996.67Z"/><path fill="#fff" d="M2387.31,2086.5a9.67,9.67,0,1,0-9.67,9.49A9.58,9.58,0,0,0,2387.31,2086.5Z"/><path fill="#c44041" d="M2359.05,1945c.2-50.16.4-101.84.47-154.27a27,27,0,0,1-7.69,3.92l-.63.3c-.08,51-.28,101.21-.47,150-.68,173.75-1.32,337.87,2.92,534.91a4.12,4.12,0,0,0,4.15,4h.09a4.11,4.11,0,0,0,4.07-4.17C2357.73,2282.75,2358.37,2118.68,2359.05,1945Z"/><path fill="#c44041" d="M2040.06,2563.37a4.14,4.14,0,0,1-4-3s-6.79-23.49-25-85.5c-12.78-43.52-29.64-350.68-40.79-553.93l-.87-15.92a4.16,4.16,0,0,1,8.3-.44l.88,15.93c11.13,202.88,28,509.47,40.47,552.1,18.22,62,25,85.53,25,85.53a4.15,4.15,0,0,1-4,5.2Z"/><path fill="#212c5e" d="M1937.68,2333.49c-59.46-14.43-119.84,23.24-130,82.54a127.22,127.22,0,0,0-1.8,19.69h0q0,3.11.06,6.19c2.59,75,86,111.05,154.46,77.76.32-.16,29.63-17.42,29.63-37Z"/><ellipse cx="1829.86" cy="2454.29" fill="#1bb9ec" rx="27.37" ry="45.26" transform="rotate(-8.1 1889.604 2528.543)"/><path fill="#c44041" d="M2703.71,2497.25a4.14,4.14,0,0,1-4.11-3.53c-4.06-28.81,4.26-118.57,14.8-232.22,10-107.37,22.36-241,27.3-359.32a4.16,4.16,0,0,1,8.31.34c-5,118.53-17.35,252.26-27.32,359.72-10.5,113.13-18.78,202.48-14.85,230.36a4.09,4.09,0,0,1-3.55,4.61A5.46,5.46,0,0,1,2703.71,2497.25Z"/><path fill="#f4a1a9" d="M1994.63,2638l-49.27-477.74a15.23,15.23,0,0,1,15.34-16.45h786a15.23,15.23,0,0,1,15.35,16.35L2715.76,2638a20,20,0,0,1-20.32,18.17l-681-.09A20,20,0,0,1,1994.63,2638Z"/><path fill="#fcd0ae" d="M2109.85,2338.12c-10.48-17-70.75,6.32-111.76,22.37,13.52-6.13,28-11.85,42.25-17.64,45.16-18.33,78.55-37.8,67.55-55.89-10.55-17.34-43.61-6.1-84.4,7.88-18.87,6.46-37.69,16.16-53.65,21.9-1,.38-2,.77-2.87,1.16-5-1,23.47-14,41.06-20,21.31-7.24,45.24-17,58.38-24.56,24.25-13.89,27-36.2-1.48-36.85-20.83-.72-43.39,7.83-64.8,13.58-9.3,2.49-75.53,23.17-88.09,30-17.37,9.44-44.32,55.34-50.17,70.19-14.92,37.92-10.9,48.81,11.3,112.11,16.25,46.34,61.49,54.67,103.7,37.21-.07-4.05-.22-8.34-.39-12.52a34.05,34.05,0,0,1,23.62-33.71c16.22-5.32,36-12,45.2-15.81,20.77-8.61,53.21-25.55,41.32-44.17-2.87-4.5-13.9-8.05-24.83-6.82C2084.34,2376.49,2120.32,2355.08,2109.85,2338.12Z"/><path fill="#f3805f" d="M1976.87,2503.22a3.62,3.62,0,0,1-3.65-3.53c-.07-4-.22-8.28-.39-12.43a37.82,37.82,0,0,1,26.11-37.26c15.38-5.05,35.65-11.87,44.94-15.72,23.54-9.75,38.13-20.18,41.08-29.37a10.77,10.77,0,0,0-1.44-9.59c-1.79-2.8-11.21-6.29-21.31-5.16a3.66,3.66,0,0,1-3.94-2.6,3.57,3.57,0,0,1,2-4.22c19.37-8.68,43.37-23.25,47.28-35.72a8.78,8.78,0,0,0-.82-7.64c-9-14.62-75.4,11.36-107.29,23.84a3.67,3.67,0,0,1-4.71-1.91,3.56,3.56,0,0,1,1.83-4.67c11.31-5.14,23.45-10,35.19-14.79l7.2-2.91c40.44-16.43,62.93-30.59,66.81-42.11a9.61,9.61,0,0,0-1-8.63c-9.06-14.9-42-3.63-80,9.42-10.15,3.48-20.29,7.91-30.1,12.19-8.3,3.63-16.13,7.05-23.5,9.7-1,.34-1.83.7-2.62,1a3.71,3.71,0,0,1-2.23.25,4.1,4.1,0,0,1-3.51-3.69c-.18-2.65.85-4.78,16.76-12.12,8.85-4.08,19.33-8.32,27.34-11,23-7.8,45.61-17.33,57.73-24.27,13.67-7.83,18.38-17.16,17-22.52-1.22-4.64-7.31-7.43-16.7-7.65-15.71-.53-32.82,4.49-49.39,9.36-4.72,1.39-9.61,2.82-14.36,4.1-9.4,2.52-75.11,23.06-87.29,29.68a3.68,3.68,0,0,1-5-1.41,3.55,3.55,0,0,1,1.42-4.87c12.9-7,79.08-27.69,88.9-30.33,4.69-1.25,9.43-2.65,14.2-4.05,17.13-5,34.84-10.25,51.69-9.65,18.29.42,22.57,9.25,23.56,13,2.62,9.95-5.38,21.92-20.37,30.5-.72.42-1.48.84-2.27,1.27,21.42-5.23,37.47-5.08,45,7.37a16.65,16.65,0,0,1,1.68,14.57c-3.29,9.74-15.24,19.87-37,31.12,18.5-3.77,32.05-3,37.28,5.45a15.71,15.71,0,0,1,1.56,13.47c-4.29,13.66-24.34,26.41-38.82,34.07,6.41,1.41,11.74,4.18,14,7.71a17.69,17.69,0,0,1,2.22,15.56c-4.62,14.39-27.14,26.33-45.21,33.82-9.5,3.94-30,10.83-45.46,15.91a30.62,30.62,0,0,0-21.13,30.16c.18,4.21.32,8.53.39,12.6a3.62,3.62,0,0,1-3.58,3.66Z"/><path fill="#f3805f" d="M1981.18,2423.94a4.16,4.16,0,0,1-3.88-2.62,4.05,4.05,0,0,1,2.4-5.27c25.39-9.55,50.51-20,84-35.09a4.18,4.18,0,0,1,5.51,2,4.05,4.05,0,0,1-2,5.41c-33.66,15.13-58.93,25.69-84.49,35.29A4.31,4.31,0,0,1,1981.18,2423.94Z"/><path fill="#f3805f" d="M1969.33,2376.75a4.14,4.14,0,0,1-3.88-2.62,4.05,4.05,0,0,1,2.4-5.27c25.38-9.54,50.51-20,84-35.09a4.19,4.19,0,0,1,5.51,2,4,4,0,0,1-2,5.41c-33.65,15.14-58.92,25.69-84.48,35.29A4.08,4.08,0,0,1,1969.33,2376.75Z"/><path fill="#f3805f" d="M1950.1,2327a4.17,4.17,0,0,1-3.83-2.49,4.06,4.06,0,0,1,2.2-5.36c11-4.59,24.15-9.83,38-15.36,22.26-8.89,47.48-19,69.46-28.56a4.19,4.19,0,0,1,5.49,2.07,4,4,0,0,1-2.11,5.39c-22.1,9.65-47.39,19.75-69.7,28.66-13.84,5.53-26.91,10.75-37.9,15.32A4.23,4.23,0,0,1,1950.1,2327Z"/><ellipse cx="2356.31" cy="2455.34" fill="#fff" rx="60.97" ry="53.25"/><path fill="#faba97" d="M2468.12,1527.7l4.37,121.08c0,27.2-59.84,71.75-86.7,75.85-13.35,2,1,26.45-19.47,27.95-19.78,1.46-15.19-35.14-29.35-37.43-26.57-4.31-67.76-44.53-67.76-71.48V1502.45Z"/><path fill="#f5927e" d="M2459.1,1527.43l10.3,44.22c-.74.16,0,3.28,0,3.28s-30,62.66-105.94,63.48c-58,.57-86.59-42.7-94.61-61.29l4.69-74.67Z"/><ellipse cx="2206.7" cy="1401.03" fill="#faba97" rx="61.37" ry="61.43"/><path fill="#de7360" d="M2233.08,1422.39a3.71,3.71,0,0,1-2.49-1L2189,1383.86a3.72,3.72,0,0,1,5-5.53l41.57,37.57a3.72,3.72,0,0,1-2.5,6.49Z"/><ellipse cx="2527.99" cy="1401.03" fill="#faba97" rx="61.37" ry="61.43"/><path fill="#de7360" d="M2505.78,1428.18a3.71,3.71,0,0,0,2.49-1l41.57-37.57a3.72,3.72,0,0,0-5-5.53l-41.58,37.57a3.72,3.72,0,0,0,2.5,6.49Z"/><path fill="#faba97" d="M2276.67,1169l-62.7,93.67v246.49a33.67,33.67,0,0,0,14.14,27.28s70.31,71.79,142.87,75.72c72.56-3.93,142.87-75.72,142.87-75.72a33.69,33.69,0,0,0,14.14-27.28V1262.67l-53-56.8Z"/><path fill="#de7360" d="M2394.36,1436.75H2354a4,4,0,1,1,0-8h35.93l-11.28-109.46a4,4,0,1,1,8-.82l11.73,113.89a4,4,0,0,1-4,4.44Z"/><path fill="#0e0d0b" d="M2312.26,1311.35c-.26,14.48-48.11,23.93-50.54,10.71C2257.68,1300.1,2312.68,1288.41,2312.26,1311.35Z"/><path fill="#0e0d0b" d="M2480.09,1319.32c-6.63,11.56-49.41-2.07-45.51-13.82C2441.06,1286,2490.6,1301,2480.09,1319.32Z"/><ellipse cx="2270.13" cy="1444.22" fill="#f08372" opacity=".32" rx="49.69" ry="49.74"/><path fill="#f08372" d="M2518,1444.22a49.69,49.69,0,1,1-49.68-49.74A49.71,49.71,0,0,1,2518,1444.22Z" opacity=".32"/><path fill="#281c1c" d="M2313.44,1369.83c-.23,10-5.15,18.05-11,17.92s-10.38-8.38-10.15-18.41,5.16-18.06,11-17.92S2313.67,1359.79,2313.44,1369.83Z"/><path fill="#281c1c" d="M2453.81,1367.34c-.23,10-5.15,18.06-11,17.93s-10.38-8.38-10.15-18.42,5.16-18,11-17.92S2454.05,1357.31,2453.81,1367.34Z"/><path fill="#de7360" d="M2378.87,1511.2a52,52,0,0,1-32.25-11.75,3.82,3.82,0,0,1,5.14-5.64c1,.86,23.6,20.82,52.66,1.31a3.82,3.82,0,0,1,4.25,6.34C2397.86,1508.72,2387.71,1511.2,2378.87,1511.2Z"/><path fill="#5f2d1f" d="M2562.94,1176.34c-1.22,4.85-5.28,9.09-12.2,11.78,24.82,61.36,11.24,134.07-26.92,190.27,7.08-28.41,3.9-54.74,2.48-84-22.29-37.06-41.82-45.69-54.54-89.75-20.52,18.89-32,21.75-58.8,34.76s-59.8,16.46-84.21,1.6c-22.75,24.7-61,33.5-89.91,18.37-18,44.67-16.35,84.23-19,131.28-9.58-12.49-14-18-26.55-39.19-17.15-43.63-27.28-73.52-19.53-114.24-9-2.39-14.87-11.84-15.54-21.16,0-.38,0-.65,0-1-.41-9,3-17.7,7.18-25.71,11.32-21.24,29.07-39.08,51.81-57.22-9.79-5.51-11.27-20-5.78-29.89s15.7-16,25.63-21.28c29.73-15.61,62-27.43,95.47-30.52s68.37,3.17,98.81,14.7c-3-6.85.82-15.55,7.46-19.12s15.05-2.73,21.68.73,11.88,9.19,16.37,15.36c11.38,15.67,18.53,34.39,18.46,52.12,26.89.09,52.83,17.35,63.74,41.84a48,48,0,0,1,2.37,5.87C2563,1166.58,2564.18,1171.58,2562.94,1176.34Z"/><path fill="#834532" d="M2559.11,1156.07a81.2,81.2,0,0,0-15-11.71,88.8,88.8,0,0,0-61.67-11.34c-.34-14.83-5.36-29.23-15-39.45-5.64-5.83-13.92-10.45-21.63-8-8.93,2.93-12.36,13.68-14.42,22.93-44.38-31.33-109.81-35.69-160.18-8.77-7.32,3.9-14.46,8.61-19,15.57s-5.66,16.57-.85,23.32c-39.47,14.3-72.5,41.76-93,76.4-.41-9,3-17.69,7.18-25.71,11.32-21.24,29.07-39.08,51.81-57.22-9.79-5.51-11.27-20-5.78-29.89s15.7-16,25.62-21.28c29.74-15.6,62-27.42,95.48-30.52s68.37,3.17,98.81,14.7c-3.05-6.85.82-15.55,7.46-19.12s15-2.73,21.68.74,11.88,9.19,16.37,15.35c11.38,15.67,18.53,34.39,18.46,52.12C2522.26,1114.33,2548.2,1131.58,2559.11,1156.07Z"/><path fill="#fff" d="M2276.59,1413.81a64,64,0,1,1,64-64A64.07,64.07,0,0,1,2276.59,1413.81Zm0-122.39a58.36,58.36,0,1,0,58.29,58.36A58.39,58.39,0,0,0,2276.59,1291.42Z"/><path fill="#fff" d="M2473.35,1413.81a64,64,0,1,1,64-64A64.07,64.07,0,0,1,2473.35,1413.81Zm0-122.39a58.36,58.36,0,1,0,58.29,58.36A58.39,58.39,0,0,0,2473.35,1291.42Z"/><path fill="#fff" d="M2410,1351.55c-28.79-35.94-69.69-4.09-71.42-2.72l-3.53-4.44c.46-.38,47-36.77,79.38,3.61Z"/><polygon fill="#423a66" points="1316.91 1751.62 1077.22 1751.62 1077.22 1462.13 1287.04 1462.13 1316.91 1488.79 1316.91 1751.62" opacity=".2"/><polygon fill="#fff" points="1327.12 1741.34 1087.44 1741.34 1087.44 1451.85 1297.26 1451.85 1327.12 1478.51 1327.12 1741.34"/><rect width="94.17" height="9.81" x="1128.36" y="1471.14" fill="#b5dff6" rx="4.91"/><path fill="#b5dff6" d="M1217.63,1498.13H1106a4.9,4.9,0,0,1-4.9-4.9h0a4.9,4.9,0,0,1,4.9-4.9h111.64a4.9,4.9,0,0,1,4.91,4.9h0A4.9,4.9,0,0,1,1217.63,1498.13Z"/><rect width="121.45" height="9.82" x="1101.09" y="1505.49" fill="#b5dff6" rx="4.91"/><rect width="121.45" height="9.82" x="1101.09" y="1522.67" fill="#b5dff6" rx="4.9"/><path fill="#b5dff6" d="M1217.63,1549.66H1106a4.9,4.9,0,0,1-4.9-4.9h0a4.9,4.9,0,0,1,4.9-4.91h111.64a4.91,4.91,0,0,1,4.91,4.91h0A4.9,4.9,0,0,1,1217.63,1549.66Z"/><rect width="121.45" height="9.82" x="1101.09" y="1557.03" fill="#b5dff6" rx="4.9"/><rect width="80.25" height="95.7" x="1233.22" y="1471.14" fill="#b5dff6" opacity=".3"/><rect width="212.38" height="83.98" x="1101.09" y="1579.93" fill="#b5dff6"/><path fill="#fff" d="M1160.46,1646.55c-2.52,1.13-7.57,2.26-14,2.26-15,0-26.28-8.47-26.28-24,0-14.87,11.28-25,27.78-25,6.62,0,10.81,1.27,12.62,2.12l-1.65,5a27.77,27.77,0,0,0-10.74-2c-12.46,0-20.75,7.12-20.75,19.6,0,11.63,7.5,19.11,20.44,19.11a30.26,30.26,0,0,0,11.2-2Z"/><path fill="#fff" d="M1213.88,1627.23c-.4-6.63-.87-14.59-.79-20.52h-.24c-1.81,5.57-4,11.5-6.71,18l-9.39,23.06h-5.2l-8.6-22.63c-2.53-6.7-4.66-12.84-6.16-18.48h-.16c-.16,5.93-.55,13.89-1,21l-1.42,20.38h-6.55l3.71-47.52h8.75l9.08,23c2.21,5.86,4,11.07,5.37,16h.23a168.64,168.64,0,0,1,5.6-16l9.47-23h8.76l3.32,47.52h-6.71Z"/><path fill="#fff" d="M1231.54,1640.63a26.57,26.57,0,0,0,12.31,3.1c7,0,11.13-3.31,11.13-8.11,0-4.44-2.84-7-10-9.45-8.68-2.75-14-6.77-14-13.46,0-7.41,6.87-12.91,17.2-12.91a26.48,26.48,0,0,1,11.76,2.33l-1.89,5a23.12,23.12,0,0,0-10.1-2.26c-7.26,0-10,3.88-10,7.12,0,4.44,3.23,6.63,10.57,9.17,9,3.1,13.57,7,13.57,14,0,7.33-6.07,13.68-18.62,13.68-5.13,0-10.73-1.34-13.57-3Z"/><path fill="#1bb9ec" d="M1299,1519c0,12.65-11.47,22.9-25.63,22.9s-25.62-10.25-25.62-22.9,11.47-22.89,25.62-22.89S1299,1506.39,1299,1519Z"/><polygon fill="#fff" points="1265.69 1507.63 1287.8 1519.03 1265.69 1530.43 1265.69 1507.63"/><rect width="80.06" height="31.08" x="1101.09" y="1677.27" fill="#1bb9ec"/><rect width="121.54" height="31.08" x="1191.83" y="1677.27" fill="#b5dff6"/><polygon fill="#b5dff6" points="1297.26 1451.85 1297.26 1478.51 1327.09 1478.51 1297.26 1451.85"/></g></svg>