<svg xmlns="http://www.w3.org/2000/svg" xmlns:xlink="http://www.w3.org/1999/xlink" viewBox="0 0 800 650"><defs><linearGradient id="c" x1="730.97" x2="730.97" y1="401.48" y2="282" gradientTransform="rotate(166.2 570.319 345.674)" gradientUnits="userSpaceOnUse"><stop offset="0" stop-color="#ccf5ff"/><stop offset="1" stop-color="#0dbfd0"/></linearGradient><linearGradient id="a" x1="589.83" x2="755.42" y1="355.81" y2="355.81" gradientUnits="userSpaceOnUse"><stop offset="0" stop-color="#23bed0"/><stop offset=".55" stop-color="#23dbd0"/></linearGradient><linearGradient id="d" x1="195.84" x2="239.77" y1="254.94" y2="254.94" gradientTransform="matrix(-1 0 0 1 323.59 0)" xlink:href="#a"/><linearGradient id="b" x1="-1695.41" x2="-1690.3" y1="1089.02" y2="1089.02" gradientTransform="matrix(-.91 .42 .42 .91 -1750.5 202.23)" gradientUnits="userSpaceOnUse"><stop offset=".42" stop-color="#e6af92"/><stop offset="1" stop-color="#e6a392"/></linearGradient><linearGradient id="e" x1="423.54" x2="438.3" y1="479.34" y2="479.34" xlink:href="#b"/><linearGradient id="f" x1="928.35" x2="928.69" y1="280.57" y2="277.94" gradientTransform="rotate(2.56 -3574.257 -7180.54)" xlink:href="#b"/></defs><g data-name="Layer 1"><path fill="url(#c)" d="M511.17 362.53c16.41-91.84-84.35-36-82-68.66 6.38-35.19 90.93 9.07 71.7-68.13-5.25-21.06-65-53.48-121.46-48.74-56.1 5.08-111.41 34.57-107.31 122.16 4 70.83 34.35 117.64 95.08 126.5 82.82 12.08 141.7-45.32 143.99-63.13Z"/><path fill="#015288" d="M254.17 473.39a129.87 129.87 0 0 1-9.7-7.21l.63-.77c3 2.45 6.24 4.86 9.63 7.15ZM235.53 458a95.52 95.52 0 0 1-7.92-9.14l.8-.61a93.62 93.62 0 0 0 7.84 9.05ZM221 438.73a75.41 75.41 0 0 1-4.94-11.06l1-.33a72.35 72.35 0 0 0 4.87 10.91Zm-7.93-22.8a69.73 69.73 0 0 1-.89-11.1v-1h1v1a68.89 68.89 0 0 0 .88 10.94Zm1.29-24-1-.18a80.68 80.68 0 0 1 3.1-11.71l.94.33a78.58 78.58 0 0 0-3.03 11.63Zm7.74-22.58-.89-.45a99.3 99.3 0 0 1 6.12-10.44l.84.55a100.28 100.28 0 0 0-6.06 10.38Zm13.36-19.8-.73-.69a46.65 46.65 0 0 1 9.41-7.67l.52.85a45.87 45.87 0 0 0-9.19 7.55Zm20-12.51-.31-.95a69.28 69.28 0 0 1 11.85-2.73l.15 1a69.56 69.56 0 0 0-11.68 2.72Zm47.66-3.48v-1c6.42-.09 9.6-1 10.64-3l.9.46c-1.56 2.98-6.46 3.5-11.53 3.58Zm-12.07-.24c-1.87-.05-4.34-.11-7-.11-1.79 0-3.44 0-5 .08v-1c1.62-.05 3.28-.08 5.08-.08 2.64 0 5.12.06 7 .11Zm19.51-14.51a101.77 101.77 0 0 1-4.91-11.05l.94-.36a97.3 97.3 0 0 0 4.87 10.95Zm-8.37-22.66a80.54 80.54 0 0 1-1.72-12l1-.06a77.13 77.13 0 0 0 1.71 11.91Zm343.5-9.15a56.24 56.24 0 0 0-1.48-11.82l1-.23a57.58 57.58 0 0 1 1.5 12Zm-164.11-11.55c-1.26-3.87-2.64-7.67-4.13-11.27l.93-.38c1.49 3.63 2.89 7.44 4.15 11.35Zm3.57-3-1-.2a96.27 96.27 0 0 1 3.14-11.68l.95.32a96.64 96.64 0 0 0-3.09 11.54Zm-183.44-.24-1-.1A71.69 71.69 0 0 1 303 260.2l1 .27a69.67 69.67 0 0 0-2.29 11.72Zm338.63-8.26a66.92 66.92 0 0 0-5.94-10.36l.82-.58a68.63 68.63 0 0 1 6 10.52ZM472.41 253.3c-1.88-3.6-3.91-7.09-6-10.35l.84-.55c2.15 3.29 4.2 6.8 6.09 10.44Zm20.5-3.44-.89-.46a70.49 70.49 0 0 1 6.43-10.26l.8.61a69.31 69.31 0 0 0-6.34 10.11Zm-184.76-.57-.91-.43a75.36 75.36 0 0 1 6.05-10.49l.83.57a73.94 73.94 0 0 0-5.97 10.35Zm318.67-5a89.12 89.12 0 0 0-8.85-8.07l.63-.78a88.58 88.58 0 0 1 8.94 8.16Zm-167.55-11a97.13 97.13 0 0 0-8.16-8.75l.69-.73a100.69 100.69 0 0 1 8.25 8.84Zm48.05-2.29-.68-.75a62.78 62.78 0 0 1 9.75-7.2l.51.86a61.81 61.81 0 0 0-9.58 7.09Zm-185.7-1.34-.74-.69a87 87 0 0 1 8.87-8.25l.63.78a85 85 0 0 0-8.76 8.12Zm286.54-.23a105.56 105.56 0 0 0-10.56-5.66l.42-.91a105.72 105.72 0 0 1 10.67 5.72Zm-21.7-10.09a106 106 0 0 0-11.57-3.15l.21-1a105.81 105.81 0 0 1 11.68 3.19Zm-58.8-.6-.35-.94a74.93 74.93 0 0 1 11.69-3.31l.19 1a72.88 72.88 0 0 0-11.53 3.21Zm-85.76-1.81a87.09 87.09 0 0 0-10.14-6.34l.47-.89a87.85 87.85 0 0 1 10.26 6.42Zm-101.73-2.34-.53-.86a97.52 97.52 0 0 1 10.7-5.67l.42.92a94.64 94.64 0 0 0-10.59 5.57Zm222.83-.22a90.83 90.83 0 0 0-12-.28v-1a91.12 91.12 0 0 1 12.11.28Zm-142.2-8.7a85.13 85.13 0 0 0-11.5-3.33l.21-1a87.61 87.61 0 0 1 11.64 3.36Zm-58.87-1-.3-1a97.53 97.53 0 0 1 11.77-2.87l.17 1a97.74 97.74 0 0 0-11.57 2.88Zm35.52-4.07a92 92 0 0 0-12-.15l-.05-1a94.06 94.06 0 0 1 12.11.15Z"/><path fill="#fdac19" d="m504.09 287.3.18.81c9.24-7.67 18.08-15.94 26.7-24.54-2.91-25.63-6.06-51.21-8.63-76.92-10.43 4.55-20.3 13.15-24.16 21.16-.69 43.83.99 54.77 5.91 79.49Z"/><path d="M528.07 267.09c-2.91-25.63-3.16-54.73-5.73-80.44a55.83 55.83 0 0 0-10.71 6.22c-.17 2.18 12.17 78.48 16.44 74.22Z" style="mix-blend-mode:multiply" fill="#fdac19"/><path fill="#fff" d="m511.59 282.18-1-.07c.77-12.16-1.37-32.34-3.26-50.15-1.43-13.45-2.77-26.15-2.58-32.93h1c-.2 6.71 1.14 19.38 2.57 32.79 1.9 17.88 4.04 38.11 3.27 50.36Z"/><path fill="#fdac19" d="M601 287.3c-.06.27-.12.54-.19.81-9.23-7.67-18.08-15.94-26.7-24.54 2.92-25.63 6.07-51.21 8.64-76.92 10.42 4.55 20.29 13.15 24.15 21.16.67 43.83-1 54.77-5.9 79.49Z"/><path d="M577 267.09c2.91-25.63 3.16-54.73 5.73-80.44a56.44 56.44 0 0 1 10.71 6.22c.17 2.18-12.17 78.48-16.44 74.22Z" style="mix-blend-mode:multiply" fill="#fdac19"/><path fill="#fff" d="M593.47 282.18c-.77-12.25 1.38-32.48 3.27-50.33 1.42-13.41 2.76-26.08 2.57-32.79h1c.2 6.78-1.15 19.48-2.57 32.92-1.89 17.82-4 38-3.27 50.16Z"/><ellipse cx="552.53" cy="178.16" fill="#0086ca" rx="41.56" ry="104.49"/><path fill="#015288" d="M527.51 261.58h50.05v9.53h-50.05zM551.34 39.92l-23.83 54.82h50.05l-26.22-54.82z"/><path fill="#fdac19" d="m529.74 89.6-2.23 5.14h50.05l-2.46-5.14h-45.36z"/><path fill="#0086ca" d="M552.53 169.38h-.12a19 19 0 0 1 0-38h.1a19 19 0 0 1 0 38Z"/><path fill="#015288" d="M552.53 131.38a19 19 0 0 1 0 38h-.12a19 19 0 0 1 0-38h.1m0-3h-.15a22 22 0 0 0 0 44h.16a22 22 0 0 0 0-44Z"/><path fill="#fff" d="M554.47 167.61a17.36 17.36 0 1 1 15.26-19.22 17.38 17.38 0 0 1-15.26 19.22Zm-3.91-34.09a17 17 0 1 0 18.78 14.92 17 17 0 0 0-18.78-14.92Z"/><path fill="#fff" d="M560.21 152.21a63.25 63.25 0 0 1-3.86-5.21c-1.12-1.66-2.16-3.32-2.94-4.58v-.07l-.67.45v.06c.79 1.27 1.83 2.94 3 4.6a61.58 61.58 0 0 0 3.86 5.21l.05.06.66-.46ZM548.52 145.7a60.82 60.82 0 0 1 3.85 5.2c1.12 1.66 4.34 7.26 5.13 8.53l.84-.89-2.34-3.42v-.06c-.79-1.28-1.84-3-3-4.6a61.58 61.58 0 0 0-3.86-5.21l-3.07-3.84-.65.46ZM548.24 153.69c1.12 1.65 2.17 3.33 3 4.6v.06l.67-.44v-.07c-.79-1.28-1.84-3-3-4.6-1.37-2-5.4-7.34-5.4-7.34l-.66.46s4.03 5.29 5.39 7.33Z"/><path fill="#fdac19" d="M548.45 297h5c.26-4.78 7.37-69.9 7.68-84.54a9.88 9.88 0 0 0-1.92-6.28c-1.1-1.43-4.24-3.4-6.38-3.36a7.72 7.72 0 0 0-2.9.72 10.11 10.11 0 0 0-3.74 2.6 10.78 10.78 0 0 0-2.23 6.71s4.29 79.31 4.49 84.15Z"/><path fill="#fff" d="m551.14 291-1-.09c1.33-13.6 1.45-33 1.56-50.08.09-13.86.16-25.84.83-32.74l1 .1c-.66 6.85-.74 18.81-.83 32.65-.1 17.09-.22 36.49-1.56 50.16Z"/><path fill="url(#a)" d="M590 373.58c-2.17-13.28 19.58-18.47 25.24-10.39-1.82-12.68 8.42-29.3 26-30.73 33.15-3.11 23.54 21.53 39.47 21.88 14.56-.27 3.71-21.31 36.82-10.77 7.92 2.36 11.94 11.22 17.54 22.16 11.34-12.47 18.3-4.35 20.38 7.85a587 587 0 0 1-165.45 0Z"/><path fill="#015288" d="M618.88 533.46c-1.3 10.08 4.2 22.47 24.22 24.92 22.92.4 31.4-14 30.72-24.92Z"/><path fill="#fdac19" d="M619.81 338.22h52.92v190.11h-52.92z"/><path fill="#fcd4ca" d="m673.24 338.51-26.96-49.22-26.97 49.22h53.93z"/><path style="mix-blend-mode:multiply" fill="#015288" d="m656.53 308-10.25-18.71L636.02 308h20.51z"/><path fill="#fff" d="M657.54 338.85h2.01v189.48h-2.01zM633.01 338.85h2.01v189.48h-2.01z"/><path fill="#fdac19" d="M617.65 526.38h57.25v7.52h-57.25z"/><path fill="#0086ca" d="M129.82 446.36q-6.75 14.56-13.49 29.14l33.88 36.78q15.12-5.56 30.24-11.09a143.61 143.61 0 0 0 35.42 16.3q5.53 15.13 11.07 30.2l50 2q6.8-14.61 13.55-29.23A144.28 144.28 0 0 0 327.07 507q14.56 6.76 29.15 13.49L393 486.64c-3.71-10.08-7.39-20.16-11.11-30.23A144 144 0 0 0 398.22 421l30.18-11.09 2-49.94-29.2-13.57a145 145 0 0 0-13.48-36.63c4.52-9.7 9-19.42 13.51-29.14l-33.9-36.78L337.1 255a144.92 144.92 0 0 0-35.41-16.32l-11.1-30.16-49.94-2.05q-6.78 14.53-13.55 29.21a143.44 143.44 0 0 0-36.62 13.45l-29.15-13.5-36.76 33.89q5.56 15.09 11.09 30.22a145.15 145.15 0 0 0-16.33 35.44q-15.09 5.54-30.19 11.08l-2 49.95 29.25 13.55a145.13 145.13 0 0 0 13.43 36.6Zm63.18-7.62a89.52 89.52 0 1 1 126.48 5.16A89.5 89.5 0 0 1 193 438.74Z"/><path fill="#fff" d="M258.76 483.8a105.73 105.73 0 1 1 105.73-105.72A105.85 105.85 0 0 1 258.76 483.8Zm0-209.44a103.72 103.72 0 1 0 103.72 103.72 103.84 103.84 0 0 0-103.72-103.72Z"/><path fill="#02797d" d="M737.18 513.85c-4.68 10-6 28.85-17 31.93-9.93 2.77-25.4-8.85-34.77-3.61-13.64 7.61 2.41 18.85-14 22.93-6.78 1.67-36.91 4.06-43.75 2.92-3.92-.65-16.58 3.23-21.57-6C595 541.54 711.86 455 758.44 475.33c21.35 9.3-17.17 29.81-21.26 38.52Z"/><path fill="#02797d" d="M683.58 490.11c-5.69 43.12-26.44 70.74-56 77.91-3.86.94-16.58 3.23-21.57-6-6.69-12.51 34.13-49.51 77.57-71.91Z"/><path fill="#096666" d="m605.72 561.35-1.24-1.43c60.77-53.08 95.46-63.68 132.19-74.9l8.72-2.68.56 1.8-8.73 2.69c-36.53 11.17-71.03 21.7-131.5 74.52Z"/><path fill="#096666" d="M716.41 512.41c-9.61-7.48-17.28-6.89-27.88-6.07-1.55.12-3.16.25-4.84.35l-.11-1.88c1.66-.11 3.26-.23 4.8-.35 10.62-.82 19-1.47 29.19 6.46ZM651 526l-.14-1.88c1.87-.14 3.55-.31 5-.47 6.82-.7 10.94-1.14 19.54 3l-.83 1.7c-8.12-3.95-11.8-3.56-18.51-2.86-1.5.21-3.2.38-5.06.51ZM707.76 496.13l-2-.39c4.58-2.37 9.35-7.43 12.9-11.07a79.25 79.25 0 0 1 7.16-6.77l1.18 1.47a79.42 79.42 0 0 0-7 6.62c-3.62 3.75-7.39 7.63-12.24 10.14Z"/><path fill="#02797d" d="M691.44 434.42c2.75 12.24 3.51 25.24-4.27 35.73-7 9.43-34.61 27.47-39.39 38.74-7 16.38 13 21 1.05 36.18a57.33 57.33 0 0 1-18.24 14.71c-4 2.15-12.67 14.5-23.65 9.62-24.14-10.73-16.41-27.54-20-38.24-7.32-22-10.26-48.3 3.73-62.17 5.72-5.67 16.73.63 22.16-5.3 5-5.43 2.47-26.87 5.65-34.8 6.61-16.48 19.83-4 23.12-12.71 7-18.55 42.91-41.83 54.5-35.79 23.56 12.28-7.1 43.33-4.66 54.03Z"/><path fill="#096666" d="m606.12 569-1.7-1.36c17.64-90.25 41.31-123 66.53-158.77 2-2.82 4-5.64 6-8.5l1.55 1.08c-2 2.86-4 5.68-6 8.5-25.11 35.61-48.82 69.22-66.38 159.05Z"/><path fill="#096666" d="m638.19 465.25-1.19-1.42c1.42-1.26 2.77-2.48 4.08-3.67 9-8.13 16-14.56 30.7-14.55v1.89c-13.93 0-20.44 5.89-29.43 14.06-1.35 1.19-2.72 2.44-4.16 3.69ZM622.22 505.52l-1.27-1.4c1.59-1.43 3-2.77 4.21-3.95 5.63-5.39 9-8.64 19.66-10.88l.38 1.85c-10.1 2.12-13.16 5.06-18.73 10.39-1.24 1.19-2.64 2.54-4.25 3.99ZM652.45 439l-2.17 1.42c2.46-5.35 3.6-13.53 4.25-19.3a90.18 90.18 0 0 1 1.72-11.12l1.83.45a88.29 88.29 0 0 0-1.67 10.85c-.67 5.91-1.36 12.03-3.96 17.7Z"/><path fill="#fe6a3c" d="M112.48 289.49h223.85v38.71H112.48z"/><path fill="#fff" d="M290.25 323.26h-.07c-27.06-.58-169.94-1-171.38-1h-.9l-2.77-26.61 1-.07c24.88-1.67 55.75-2.51 91.74-2.51 44.82 0 82 1.34 82.33 1.36h.75l.19.73c.55 2.24 5.33 22 1.56 26.84a3.09 3.09 0 0 1-2.45 1.26Zm-170.54-3c12.27 0 144.57.45 170.51 1v1-1a1.05 1.05 0 0 0 .9-.47c2.32-3 .22-16.21-1.74-24.38-5.51-.19-40.25-1.33-81.5-1.33-35.44 0-65.91.82-90.57 2.44ZM315.06 303.06a6.12 6.12 0 1 0-9.9 7.19 6.75 6.75 0 0 0 8.42 1.86l5.75 8 1.4-1-6.38-7.61a7 7 0 0 0 .71-8.44Zm-2.37 7.14a4.39 4.39 0 1 1 1-6.13 4.38 4.38 0 0 1-1 6.13Z"/><path fill="url(#d)" d="M127.71 260.79c.57-4.66-5.15-6.48-6.64-3.64.47-4.45-2.22-10.28-6.84-10.78-8.73-1.08-6.2 7.55-10.4 7.68-3.83-.1-1-7.48-9.69-3.78-2.08.82-3.14 3.93-4.62 7.77-3-4.38-7.93 2.59-4.59 3.76 14.44 2.74 43.83 2.34 42.78-1.01Z"/><path fill="#fdac19" d="M451.32 258.19c8.83.55 12.22 9.19 4.58 15.12 6.66.46 13.47 1.45 19.21 1.68.32 7.68.32 17.23 0 24.91-9.37-9.38-20.6-2.79-17.65 8.27 3.31 9.38 13.72 4.89 16.55 4.42-.37 15.8 1.35 16.36-.13 16.36-10.12 0-34.95-.72-50.41-1.35-.57-12.62 1-22.12-1.23-22.37-3.75-.41-17.16 7.37-16.71-7.62.49-16.47 14.68-9 19.33-6-.26-8.83.82-7.53.82-16.9 0-5.65.74-2.46 17.87-1.94-4.1-6.13-4.91-15.37 7.77-14.58ZM82.28 407.58l-.59-4.06c-.77-5.26-1.57-10.71-2.11-16.19l1.44-.14c.54 5.45 1.33 10.88 2.1 16.13l.59 4.06ZM60.07 417.13l-3.42-2.23c-4.47-2.9-9.09-5.91-13.56-9.13l.84-1.17c4.45 3.2 9 6.19 13.51 9.09l3.42 2.23ZM35.42 443.45l-.26-1.45c5.37-1 10.7-2.27 15.85-3.49l4-1 .33 1.4-4 .95c-5.17 1.31-10.51 2.58-15.92 3.59ZM113.89 417.13l-.8-1.21 3.43-2.23c4.45-2.9 9.06-5.89 13.51-9.09l.84 1.17c-4.48 3.22-9.09 6.23-13.56 9.13ZM138.54 443.45c-5.41-1-10.75-2.28-15.92-3.51l-4-.95.33-1.4 4 1c5.15 1.22 10.48 2.48 15.85 3.49Z"/><path fill="#015288" fill-rule="evenodd" d="M81.08 495.54c0 .31 1.78 4.31 1.8 4.62h8.72c0-.31 1.32-4.31 1.28-4.62Z"/><path fill="#fdac19" fill-rule="evenodd" d="M75.86 468.21c.88 2.21 1.7 13.12 2.49 15.36h18.54c.86-2.25 1.75-13.17 2.71-15.37 2.11-3.05 11.83-14.35 15.12-24.94 4.43-13.29-8-32.06-27.24-32.09s-32.72 17.29-28.3 30.63c3.32 11.06 12.57 21.45 16.68 26.41Z"/><path fill="#015288" d="M91 482.14c-1.41-7.73-.73-24 2.08-35.67a3.08 3.08 0 0 1-1.13-.09c-1.76-.47-3-2.47-4-4.75-1.32 3-2.93 4.63-4.83 4.9a4.22 4.22 0 0 1-2.21-.3c1.67 11.18 3.47 27.42 3 35.84L82.8 482c.43-8-1.34-24.73-3.12-36.46a16.21 16.21 0 0 1-4.69-6c-1.2-2.46-2.22-5.71-1.11-6.79l.08-.07a2.77 2.77 0 0 1 2.68-.49c2 .82 2.65 4.32 3 6.2v.08c.32 1.73.69 3.9 1.07 6.38a3.5 3.5 0 0 0 2.26.53c1.29-.18 2.94-1.38 4.42-5.36a38.71 38.71 0 0 1-1-3.86c-.74-3.72.27-6.61 1.65-7.54a1.44 1.44 0 0 1 1.64-.11c.86.56 1.12 2.07.73 4.26a45.55 45.55 0 0 1-1.79 7.23c1 3 2.29 4.87 3.62 5.23a2.15 2.15 0 0 0 1.15 0 34.79 34.79 0 0 1 3.22-8.48l.22-.37c.71-1.24 1.39-2.41 2.33-2.31s1.14 1 1.25 1.36c.91 2.65-2.69 7.54-3.7 8.7a7.83 7.83 0 0 1-2.32 1.93c-2.86 11.48-3.68 28.12-2.26 35.87Zm8-46.91a7.21 7.21 0 0 0-1.18 1.77l-.22.38a30.81 30.81 0 0 0-2.77 7.05 8.74 8.74 0 0 0 1-1c1.57-1.8 4.07-5.87 3.48-7.58a1.71 1.71 0 0 0-.31-.62Zm-24.34-1.63c-.29.4-.1 2.47 1.37 5.44a17.1 17.1 0 0 0 3.39 4.82c-.31-1.91-.61-3.65-.89-5.16v-.08c-.27-1.43-.9-4.78-2.31-5.36a1.67 1.67 0 0 0-1.56.34ZM89 429.46a.55.55 0 0 0-.28.12c-.89.6-1.85 3-1.17 6.36.15.76.32 1.48.5 2.16a51.71 51.71 0 0 0 1.26-5.52c.37-2.09 0-2.94-.22-3.09Z"/><path fill="#0086ca" fill-rule="evenodd" d="m75.18 481.09 2.23 2.45c-2.1-.2-2.2 3.15.44 3.31-2.7-.11-2.8 3.35-.17 3.39-2.64-.15-2.74 3.74-.26 4L75.76 496c3.41 1.6 22.28 1.5 22.68-.17l-1.51-1.79c2.65-.23 1.95-3.74-.26-3.58a1.8 1.8 0 1 0 0-3.59 1.68 1.68 0 0 0 .31-3.31l1.81-2.48Z"/><path fill="#fdac19" d="M378.53 149.36c-.21 0 0 .55 0 .55-9.61-3.91-75.91-6.5-78 8.15-3.41 23.64-6.85 40.11 11.09 47.21 11.53 4.55 36.88 3.35 53.19 1.83l13.09 9.72-.31-11.19c.69-.1 1.24-.2 1.61-.27 17.8-3.36 27.92-56.42-.67-56Z"/><path fill="#fff" d="M330.84 169.24a3 3 0 0 0-.11-.62 3.32 3.32 0 0 1-.07-.32 5.58 5.58 0 0 0-.12-.88l-.23-1.37a8.42 8.42 0 0 0-.13-1.18c-.08-.53-.17-1.1-.27-1.69l-.28-1.63a7.35 7.35 0 0 1-.12-.85 3 3 0 0 0-.12-.86c-.14-.46-.37-.69-.7-.69a2 2 0 0 0-.35 0 .67.67 0 0 0-.4.27 1.07 1.07 0 0 0-.28.33 1.17 1.17 0 0 0-.18.57v1.17h.27a1.7 1.7 0 0 1 .08.55v.12c0 .14.1.43.21.9s.21 1 .32 1.5.21 1.08.3 1.57a7.17 7.17 0 0 1 .13.91 9 9 0 0 0 .1 1.29c.07.47.15.89.25 1.3a2.85 2.85 0 0 1 .12.82v1.09c0 .34 0 1-.09 1.65s-.09 1.41-.09 2.13v1.86l-2.55-.11c-.37 0-.85 0-1.45.09s-1.06.08-1.55.09a4.63 4.63 0 0 1-1.26 0l-1.09-.2-.88-.27c-.32-.09-.6-.17-.82-.25l-.55-.2v-1.2a11.67 11.67 0 0 1 .17-1.73c0-.08 0-.45.09-1.1s.09-1.48.09-2.35 0-1.79.08-2.53.08-1.14.09-1.36a4.6 4.6 0 0 0 .15-1v-1.14q0-.54-.09-1.47a16.15 16.15 0 0 1-.09-1.63v-1.36c0-.36-.05-1-.65-1h-.11a1.15 1.15 0 0 0-.6.31l-.09.13a3.15 3.15 0 0 0-.26 1 14 14 0 0 0 0 2.72v2.66a8.45 8.45 0 0 1-.13 1.55v.11c0 .25 0 .72-.07 1.43s-.08 1.47-.08 2.17 0 1.53-.08 2.47-.09 1.83-.09 2.47-.16 1.43-.24 2.18-.11 1.32-.11 1.68a4.92 4.92 0 0 1-.11 1 2.59 2.59 0 0 1-.19.69 2 2 0 0 0-.2.76v.49c0 .09 0 .55.09 1.13a16.39 16.39 0 0 1 .09 1.82c0 .71 0 1.42.09 2.11s.08 1.15.08 1.49a11.59 11.59 0 0 1-.08 1.29 9.88 9.88 0 0 0-.09 1.14 4.69 4.69 0 0 1-.11.85 7.29 7.29 0 0 1-.2.83 3.61 3.61 0 0 0-.4.92 3.21 3.21 0 0 0-.14.85v.15c0 .15.09.27.13.36v.56l.26-.1a.85.85 0 0 0 .59.2.87.87 0 0 0 .57-.22.84.84 0 0 0 .28-.52l.69-.26-.55-.13a4.45 4.45 0 0 0 0-.53.89.89 0 0 1 .05-.32 1.73 1.73 0 0 0 .1-.33 1.18 1.18 0 0 0 .19-.44V193a3.09 3.09 0 0 1 .08-.46 5.09 5.09 0 0 0 .09-.91 6.1 6.1 0 0 1 .08-.85 4.54 4.54 0 0 0 .09-.77 3 3 0 0 0 .14-1v-1.33c0-.44 0-.91-.08-1.66s-.07-1.38-.07-2v-2.82a3.3 3.3 0 0 0 .22-.82 7.92 7.92 0 0 0 .1-1.23v-.81a2.39 2.39 0 0 1 .39.08 7 7 0 0 0 1 .26 6.52 6.52 0 0 0 .94.12 2.68 2.68 0 0 0 .78.16 3 3 0 0 1 .72.14h.16c.18 0 .53 0 1.05-.08s.94-.07 1.4-.08h1.04c.37 0 .73 0 1.07.05l.88.07h.32a1.19 1.19 0 0 0 .5.17v2c0 .84 0 1.71-.08 2.57s-.09 1.48-.09 1.73a10.33 10.33 0 0 1-.09 1.11 13.62 13.62 0 0 0-.09 1.49 8.52 8.52 0 0 1-.08 1.24q-.09.7-.09.84a2.81 2.81 0 0 1-.08.59 4.6 4.6 0 0 0-.1.78v1a6.84 6.84 0 0 0 .15 1.13 4.65 4.65 0 0 0 .1.87 4.45 4.45 0 0 1 .07.48v.21l.15.14a.6.6 0 0 0 .9.09 2.38 2.38 0 0 0 .31-.26 1.23 1.23 0 0 0 .3-.81v-.92a9.44 9.44 0 0 0-.09-1.12 10 10 0 0 1-.08-1.13 6.58 6.58 0 0 1 .16-1.28v-.1q0-.14.09-.78a15.4 15.4 0 0 0 .09-1.82c0-.68 0-1.28.08-1.78s.09-.88.09-1 0-.56.09-1.4.09-1.86.09-2.9v-3.76l.08-1.83v-3.92a7 7 0 0 0 .01-1.45ZM342.82 160.09h-1a12.76 12.76 0 0 1-2.71-.67l-1.22-.23c-.24 0-.94-.08-2-.15l-1.58-.09-.53-.21a.57.57 0 0 0-.41-.23h-.32a1.23 1.23 0 0 0-.77.44l-.07.1a1 1 0 0 0 .09 1.19 1.52 1.52 0 0 0 .63.33 3.09 3.09 0 0 0 .89.12l3.34.17.08.4V167a6.13 6.13 0 0 1-.07.75 6.19 6.19 0 0 0-.08 1c0 .21 0 .63-.08 1.26s-.07 1.38-.07 2.14 0 1.72-.08 2.94-.07 2.37-.07 3.41 0 1.8-.08 2.57-.06 1.06-.07 1.29a2.12 2.12 0 0 0-.13.7v1c-.07.47-.11.91-.13 1.32s0 .68 0 .83a2.76 2.76 0 0 1-.06.5 3.89 3.89 0 0 0-.07.66 1.8 1.8 0 0 1-.06.28 6.34 6.34 0 0 1-.28 1.22 8 8 0 0 0-.11 1.34c0 .44 0 1-.07 1.59s-.08 1.2-.08 1.66v1.49c0 .54.27.72.48.77a1.22 1.22 0 0 0 .5.12.71.71 0 0 0 .57-.25 1.41 1.41 0 0 0 .28-.41 1.11 1.11 0 0 0 0-.77 6.1 6.1 0 0 0-.08-.69 4.11 4.11 0 0 1-.07-.71v-1a6 6 0 0 1 .12-.95v-.1a5.48 5.48 0 0 1 .07-.88 6.88 6.88 0 0 0 .08-.9 4.32 4.32 0 0 1 .09-.85 6 6 0 0 1 .19-.78 4.29 4.29 0 0 0 .14-1.13v-1.24a11.24 11.24 0 0 1 .1-1.36c.06-.56.13-1.07.2-1.53s.11-1 .12-1.43 0-.7 0-.86v-.2a1.85 1.85 0 0 1-.09-.68V176.23c0-.72.06-1.34.13-2s0-1.26.07-2 .08-1.44.08-2 0-1 .07-1.57.08-1.15.07-1.44a11.51 11.51 0 0 0 .13-1.78v-4.27l.59.2a6.75 6.75 0 0 0 1.26.33 2.83 2.83 0 0 0 .7.11 1.79 1.79 0 0 1 .71 0 .72.72 0 0 0 .69.42h.17a1.24 1.24 0 0 0 .7-.48l.07-.11a1.62 1.62 0 0 0 .19-.83c.02-.44-.39-.69-1.16-.72ZM365.26 164.84a10.42 10.42 0 0 1-.11-1.24 6 6 0 0 0-.14-1.28c-.09-.49-.19-.95-.31-1.43l-.42-1.28a1.23 1.23 0 0 0-.69-.74l-.21-.05a3.09 3.09 0 0 0-.61.05 1.11 1.11 0 0 0-.6.32c-.11.11-.21.23-.31.35a1 1 0 0 0-.26.63v1.07a2.41 2.41 0 0 1-.13.47c-.1.31-.2.7-.3 1.11a6.43 6.43 0 0 0-.22 1.43 3.65 3.65 0 0 1 0 .38 1.65 1.65 0 0 1-.15.48 5.16 5.16 0 0 0-.32 1.13 7.09 7.09 0 0 0-.15 1.43 7.91 7.91 0 0 1-.13 1.11l-.29 1.83q-.15 1-.3 1.77c-.12.69-.18.91-.18.93q-.16.34-.42 1.05a4.36 4.36 0 0 0-.28 1.51 4.91 4.91 0 0 1-.12 1.11 5.22 5.22 0 0 1-.27.84 2.3 2.3 0 0 0-.24.85 9.59 9.59 0 0 1-.37 1 6.54 6.54 0 0 0-.36 1.09c-.11.44-.22.81-.32 1.12v.15a3.94 3.94 0 0 1-.12.92 6.8 6.8 0 0 1-.23.74 1.57 1.57 0 0 0-.28.74 2.41 2.41 0 0 1-.17.59l-.05.21a8.77 8.77 0 0 1 0 .9 1.72 1.72 0 0 1-.14.62 5.37 5.37 0 0 0-.31 1.09v-.23a1.65 1.65 0 0 0-.17-.77.34.34 0 0 1-.05-.11v-.18l-.14-.14a2 2 0 0 1-.18-.62 7.86 7.86 0 0 1-.13-1.41c0-.54 0-1.24-.1-2.09s-.1-1.55-.1-2.18a15.43 15.43 0 0 0-.11-1.87c-.07-.5-.11-.81-.11-.91a3.28 3.28 0 0 0-.13-.87 2.92 2.92 0 0 1-.1-.43 4.56 4.56 0 0 0-.15-1c-.09-.39-.19-.75-.29-1.07s-.21-.66-.31-1.05-.22-.76-.34-1.14a5.77 5.77 0 0 1-.32-1 8.68 8.68 0 0 0-.53-1.49l-.3-1.61c-.11-.59-.22-1.11-.33-1.58-.1-.31-.2-.69-.32-1.15s-.23-.88-.33-1.2-.25-.74-.43-1.26a10.81 10.81 0 0 1-.41-1.48v-.14a9.13 9.13 0 0 1-.49-1.12 1.68 1.68 0 0 0-.38-.68 1.85 1.85 0 0 0-.26-.42l-.16-.18h-.23a.9.9 0 0 0-.65.29.88.88 0 0 0-.25.43 2.26 2.26 0 0 0-.3.64 3.79 3.79 0 0 0-.16 1.07 3.33 3.33 0 0 1-.09.78 2.7 2.7 0 0 0-.13.72c0 .21 0 .77-.1 1.69s-.1 2-.1 3.21c0 .59 0 1.4-.05 2.41s-.06 2.15-.09 3.4 0 2.56-.06 3.92 0 2.68 0 4 0 2.62-.06 4-.09 2.62-.14 3.76l-.12 2.83v1.21a2.57 2.57 0 0 1-.1.65 4.63 4.63 0 0 0-.13 1 1.64 1.64 0 0 0 0 1.15.78.78 0 0 0 .7.48 1.55 1.55 0 0 0 .93-.34l.14-.16v-.2a2 2 0 0 1 .09-.43 3.17 3.17 0 0 0 .13-.87v-.52a1.3 1.3 0 0 1 .13-.54v-.21c0-.1 0-.47.06-1.12s.09-1.48.14-2.43.1-2 .14-3.1.06-2.18.06-3.21v-2.74c0-.88 0-1.65.06-2.31s.06-1.39.11-2.22v-11.9a.78.78 0 0 0 .05.14 3.08 3.08 0 0 1 .22 1v.15c.1.31.24.79.42 1.45a18.07 18.07 0 0 1 .44 2c.21.64.38 1.19.5 1.64a2.24 2.24 0 0 0 .35.83c0 .11.07.26.13.46l.29.91c.1.31.2.7.31 1.15s.22.82.32 1.13a5.23 5.23 0 0 0 .12 1.07 4.84 4.84 0 0 1 .1.8 2.57 2.57 0 0 0 .12.68 2.76 2.76 0 0 1 .08.6 8.59 8.59 0 0 0 .12 1 13.33 13.33 0 0 1 .1 1.73c0 .66 0 1.43.11 2.27s.09 1.49.09 2a8.18 8.18 0 0 0 .13 1.49 6.64 6.64 0 0 1 .1.66v.16l.1.13c.07.11.1.17.1.15a8 8 0 0 0 .16 1l.3 1.61a15 15 0 0 0 .4 1.67 4.55 4.55 0 0 1 .21 1v.32l.15.15a1.92 1.92 0 0 1 .11.44.69.69 0 0 0 .47.54.9.9 0 0 0 .55.19.94.94 0 0 0 .68-.31c.22-.24.34-.27.36-.27l.42-.07v-.58c0-.26.07-.35.06-.35l.14-.14v-.21a4.47 4.47 0 0 1 .11-.82 7.15 7.15 0 0 0 .12-1.33 6.72 6.72 0 0 1 .09-1.13 4.55 4.55 0 0 0 .11-.79v-.55a4.21 4.21 0 0 1 .25-.77 2.76 2.76 0 0 0 .22-.94v-.78a1.71 1.71 0 0 1 .12-.56c.09-.23.17-.45.26-.63a1.54 1.54 0 0 0 .27-.65 2.53 2.53 0 0 1 .08-.35l.15-.15v-.21a1.8 1.8 0 0 1 .08-.5 2.72 2.72 0 0 0 .12-.8 2.92 2.92 0 0 1 .24-.88c.19-.5.39-1.08.63-1.8.09-.52.22-1.1.38-1.73a8.19 8.19 0 0 0 .25-1.48c.1-.33.2-.75.31-1.29s.23-1.05.31-1.43a9.87 9.87 0 0 0 .28-1.25l.42-2.14q.22-1.18.42-2.31c.14-.76.23-1.33.28-1.72.1-.73.23-1.46.39-2.15v-.09l.09.45c0 .33 0 .92-.05 1.77l-.11 2.79c0 1-.08 2-.1 3s0 1.78 0 2.36v4a18.67 18.67 0 0 1-.17 2.31l-.29 1.24a4.79 4.79 0 0 0-.15 1c0 .1 0 .42-.11 1a15.5 15.5 0 0 0-.11 2 24.34 24.34 0 0 0-.18 2.62V193.39a2.91 2.91 0 0 0-.19.81v1l.15.15a1 1 0 0 1 .17.21.92.92 0 0 0 .83.36h.01l.12-.08c.35-.22.66-.47.66-.84 0-.11 0-.61.11-1.51s.11-2 .11-3.22 0-2.35.1-3.52.1-2 .1-2.46a12.38 12.38 0 0 1 .14-1.71c.09-.65.18-1.18.28-1.62s.2-1.26.3-2.18.13-2.08.13-3.49c0-.52 0-1.23.08-2.12l.15-2.72c.05-.92.09-1.76.12-2.51a6.65 6.65 0 0 0 0-1.52 10.86 10.86 0 0 0-.14-1.58ZM378.19 193.64a1.3 1.3 0 0 0-.91-.27c-.17 0-.49 0-.95-.07a5.21 5.21 0 0 0-1.53.07h-1.46c-.49 0-.81.13-.94.37a.74.74 0 0 1-.18.09.73.73 0 0 1-.31.07.94.94 0 0 1 .06-.18 2.09 2.09 0 0 0 .22-1v-1.62a4.27 4.27 0 0 1 .14-1v-.13a9.26 9.26 0 0 1 .1-1.27 11.81 11.81 0 0 0 .1-1.54q0-.54.09-2.07c.06-1 .09-2.07.09-3.1s0-2.14.09-3.08.1-1.41.1-1.66a4.3 4.3 0 0 0 .18-1.21 5.17 5.17 0 0 1 .09-.64 7.26 7.26 0 0 0 .11-1.21 9.89 9.89 0 0 1 .1-1.3 5.31 5.31 0 0 1 .22-1.13v-2a2.35 2.35 0 0 1 .09-.56 4.17 4.17 0 0 0 .11-.94 4 4 0 0 1 .16-1v-.12q0-.15.09-.93a15.68 15.68 0 0 0 .11-1.87v-2.43a1.14 1.14 0 0 0 .17-.52 2.7 2.7 0 0 1 .09-.51 4.45 4.45 0 0 0 .11-.94 2.14 2.14 0 0 0 .09-1c-.06-.17-.24-.45-.79-.45h-.64v.46a.53.53 0 0 1-.07.2l-.27.56a7 7 0 0 0-.3 1.37c-.09.57-.18 1.53-.28 2.87 0 .92 0 1.75-.1 2.47s-.1 1.24-.1 1.43v.66a2.15 2.15 0 0 1-.13.68v.19a3.27 3.27 0 0 1-.15 1.44l-.05.21a5.89 5.89 0 0 1-.08.61 6.85 6.85 0 0 0-.09 1 8.17 8.17 0 0 1-.1 1.21 9.08 9.08 0 0 0-.1 1.21 4.83 4.83 0 0 1-.1.92 2.22 2.22 0 0 1-.19.69l-.06.12v1.45a19.38 19.38 0 0 1-.17 2.11v3.9c0 .45 0 1-.09 1.66s-.09 1.3-.09 1.87v1.34a1.21 1.21 0 0 0 0 .18h-.17v1a2.35 2.35 0 0 1-.13.64v1.26a3.31 3.31 0 0 1-.14 1v.17a3.59 3.59 0 0 1-.09.78c-.06.27-.11.35-.09.34a.75.75 0 0 0-.29.63 1 1 0 0 0 .53.73l.12.07h1.07a4.22 4.22 0 0 0 .87-.12c.35-.08.67-.18 1-.28a9 9 0 0 1 .87-.25 4.91 4.91 0 0 1 .7-.1 2.07 2.07 0 0 0 .7.18h.6v.16h.49a.68.68 0 0 1 .21.06 2.13 2.13 0 0 0 1.13.11.68.68 0 0 0 .64-.67v-.55a1 1 0 0 0-.5-.82Z"/><path fill="#d8d2d2" d="M618.8 589.13a115.94 115.94 0 0 1-7.07 11.87c-1.21-.79-2.49-2.47-3.81-3-.4-.16 2.47-4.91 5.94-12.35 1.7 1.05 3.34 2.25 4.94 3.48Z"/><path fill="#040e31" d="m608.3 595.64 3 2 2.07 1.33c1.09 2.28 3.17 4 4.75 5.66s2.27 2.11 4 4a.73.73 0 0 1 0 1.08c-1.18 1.08-3.18-.24-4.4-1s-3.62-2.64-4.8-3.5c-2.66-1.94-3.84-3.59-4.38-3.11-.35.32-3.09-1.84-2.74-2.61.9-1.98 2.11-2.8 2.5-3.85Z"/><path fill="#02091c" d="M632.64 548c-.72-1.55-3.37-14.64-9.43-19.47h-26a18 18 0 0 0 3.55 5.06c26 11.59-12.88-2.91-.79 2.12 3.23 1.35 25.25 16.46 8.88 59.21 4.15 1.72 3 .94 6.86 1.93 15.96-24.1 17.29-46.96 16.93-48.85Z"/><path fill-rule="evenodd" d="M215.37 594.59c-2.61-.15-1.38-3.11-1.21-5.3-1.95.24-3.45 2.5-6 3.43-1.44.5-8.23.3-9-2.42 4.76-.15 5.61.13 6.44-.3 5.39-1.54 8.17-6 12.25-9.16 6.3 4.16-2.07 8.1-2.48 13.75Z"/><path fill="#fcd4ca" d="M205.21 589.17c4.24-3.75 6.7-8.81 6.78-12l4.69.62c-.09.64 1.2 3.09 1.2 3.09s-5.89 6.06-10.06 8.69c-2.71 1.71-4.12.67-4.12.67s.3-.01 1.51-1.07Z"/><path fill="#02091c" d="M227.18 539.93c-10.19-.4-9.48-1.69-10.23 2.36-4.23 23-6.42 36.2-5.5 36.7s5-1 5-1 16.04-37.85 10.73-38.06Z"/><path fill="#1693b8" d="M263.15 560.72a14.57 14.57 0 0 1-14.58-14.57V359.77a14.57 14.57 0 0 1 14.58-14.57h311.58a14.57 14.57 0 0 1 14.57 14.57v186.38a14.58 14.58 0 0 1-14.57 14.57Z"/><path fill="#096666" d="M247.17 546.15V359.77a16 16 0 0 1 16-16h311.56a16 16 0 0 1 16 16v186.38a16 16 0 0 1-16 16H263.15a16 16 0 0 1-15.98-16ZM587.9 359.77a13.2 13.2 0 0 0-13.17-13.18H263.15A13.2 13.2 0 0 0 250 359.77v186.38a13.19 13.19 0 0 0 13.18 13.17h311.55a13.19 13.19 0 0 0 13.17-13.17Z"/><path fill="#015288" d="M264.85 359.47h308.44v182.91H264.85z"/><path fill="#d8d2d2" d="M264.58 358.51h308.44v11.25H264.58z"/><path fill="#1693b8" d="M248.57 546.78H589.3v4.87H248.57z"/><path fill="#1693b8" fill-rule="evenodd" d="M616.85 548.71H221v11.75c4.7 7 16.12 12 22 12h351.94c5.82 0 17.17-5 21.91-11.9Z"/><path fill="#015288" fill-rule="evenodd" d="M221.23 560.82c4.84 6.81 16 11.64 21.75 11.64h351.93c5.74 0 16.88-4.83 21.73-11.64Z"/><path fill="#f2f2f2" d="M385.58 549a8.83 8.83 0 0 0 8.8 8.11h49.11a8.84 8.84 0 0 0 8.8-8.11Z"/><path fill="#fff" d="M350.27 456.69h18.84v2.01h-18.84zM329.98 410.94h23.19v2.01h-23.19zM450.99 410.94h18.84v2.01h-18.84zM481.42 410.94h18.84v2.01h-18.84zM359.69 410.94h78.98v2.01h-78.98z"/><path fill="#fe6a3c" d="M318.38 391.15h18.84v2.01h-18.84zM318.38 483.97h18.84v2.01h-18.84z"/><path fill="#fff" d="M370.56 466.59h131.16v2.01H370.56zM370.56 476.49h34.06v2.01h-34.06zM413.31 476.49h34.06v2.01h-34.06z"/><path fill="#fe6a3c" d="M456.06 476.49h34.06v2.01h-34.06z"/><path fill="#fdac19" d="M315.49 401.04h36.23v2.01h-36.23z"/><path fill="#fff" d="M358.24 401.04h75.36v2.01h-75.36z"/><path fill="#fdac19" d="M315.49 493.86h18.84v2.01h-18.84z"/><path fill="#fff" d="M447.37 493.86h47.1v2.01h-47.1zM346.64 493.86h86.96v2.01h-86.96zM341.57 503.76h134.06v2.01H341.57zM341.57 513.66h28.11v2.01h-28.11zM382.96 513.66h95.11v2.01h-95.11zM350.99 420.84h75.36v2.01h-75.36zM441.57 420.84h36.23v2.01h-36.23zM315.49 436.89h36.23v2.01h-36.23z"/><path fill="#fdac19" d="M363.31 436.89h71.74v2.01h-71.74z"/><path fill="#fff" d="M315.49 446.79h36.23v2.01h-36.23zM363.31 446.79h107.24v2.01H363.31zM293.94 386.14h2.01v134.54h-2.01z"/><path fill="#fe6a3c" d="M589.21 324.68c-.28 0 0 .72 0 .72-12.71-5.17-100.31-8.59-103.1 10.77-4.5 31.23-9.05 53 14.66 62.37 15.23 6 48.72 4.43 70.28 2.43l17.29 12.85-.41-14.8c.92-.13 1.65-.25 2.13-.34 23.57-4.49 36.94-74.56-.85-74Z"/><path fill="#fff" d="M534.82 347.67a.48.48 0 0 1 0-.19 1.09 1.09 0 0 0-.35-.91l-.31-.31a4.81 4.81 0 0 0-1-1 9.32 9.32 0 0 0-1.08-.7l-.76-.42a2 2 0 0 0-.85-.22h-2.08a4.86 4.86 0 0 1-.59.19.81.81 0 0 0-.64.82c0 .09 0 .29-.08.62a7.88 7.88 0 0 0-.09 1.17 11.82 11.82 0 0 1-.1 1.47c-.06.59-.1 1.12-.1 1.58s0 .87-.08 1.57-.09 1.48-.09 2.2 0 1.78-.08 3.2-.09 2.82-.09 4.17v2.07l-.07 2.26v3.87c-.1 1.09-.16 2.37-.18 3.79s0 2.63 0 3.62v2.47c0 .74 0 1.61.68 1.61h.48l.12-.07a1 1 0 0 0 .41-.53 3.18 3.18 0 0 0 .14-.92c0-.41 0-1 .05-1.77s0-1.82 0-3.12v-4.47c0-.68 0-1.26.08-1.77s0-.84 0-1.07a5.34 5.34 0 0 0 .1-1.06v-4.17a.65.65 0 0 0 .21 0 2 2 0 0 0 1.06-.16 4.14 4.14 0 0 0 .8-.42 3.08 3.08 0 0 0 .74-.41 2.94 2.94 0 0 0 .41-.36l.09-.06a1.38 1.38 0 0 0 .72-.32 2.12 2.12 0 0 0 .57-.59 4.89 4.89 0 0 0 .64-1 7.17 7.17 0 0 0 .46-1.2 5.84 5.84 0 0 0 .43-1.09 2.82 2.82 0 0 0 .16-.75 5.32 5.32 0 0 1 .1-.61c.07-.35.15-.71.26-1.08s.19-1 .26-1.59a13.58 13.58 0 0 0 .12-1.76 15.59 15.59 0 0 0-.06-1.62 1.66 1.66 0 0 0-.41-.96Zm-6.52 12.53v-6.09c0-.34 0-.94.1-1.78s.16-1.68.26-2.53 0-1.53.09-2.22.09-1.18.09-1.37a2.19 2.19 0 0 1 0-.29l.29-.09h1a2.37 2.37 0 0 1 .51.08 2.72 2.72 0 0 1 .56.22c.15.07.22.12.24.12v.46h.72a2.5 2.5 0 0 0 .31.4 2.35 2.35 0 0 1 .29.39l.34.57a2.71 2.71 0 0 1 .21.6 2.33 2.33 0 0 1 .09.58v.13l.07.12a1.5 1.5 0 0 1 .08.64 6.16 6.16 0 0 1-.13 1.17v.11a6.93 6.93 0 0 1-.1 1.13 3 3 0 0 1-.2.78l-.06.12v.12a3.86 3.86 0 0 1-.08.62 4.77 4.77 0 0 0-.1.81 1.34 1.34 0 0 1-.05.35 1.53 1.53 0 0 0-.1.38 4.86 4.86 0 0 0-.52 1.42 3.87 3.87 0 0 1-.39.77.85.85 0 0 0-.71.72H531a.88.88 0 0 0-.59.23 1.05 1.05 0 0 0-.22.3l-.61.39-.73.27a1.05 1.05 0 0 0-.58.4ZM553.27 354.5a2.87 2.87 0 0 0-.1-.61 3.32 3.32 0 0 1-.07-.32 7.26 7.26 0 0 0-.11-.86l-.23-1.34a8.08 8.08 0 0 0-.13-1.16c-.08-.53-.17-1.08-.27-1.66l-.27-1.6a6.79 6.79 0 0 1-.12-.84 3.34 3.34 0 0 0-.11-.84c-.14-.46-.38-.69-.71-.69a1.27 1.27 0 0 0-.34 0 .6.6 0 0 0-.39.26 1 1 0 0 0-.28.32 1.17 1.17 0 0 0-.18.57v1.16h.27a1.89 1.89 0 0 1 .08.53v.13c0 .12.1.42.21.87s.21 1 .31 1.48.21 1.05.3 1.54a7.49 7.49 0 0 1 .13.89 8.59 8.59 0 0 0 .1 1.26c.07.47.14.88.24 1.28a2.77 2.77 0 0 1 .12.81v1.07c0 .34 0 .95-.09 1.61s-.09 1.39-.09 2.09v1.82l-2.54-.07c-.36 0-.84 0-1.42.09s-1 .08-1.52.09a4.41 4.41 0 0 1-1.23 0l-1.07-.19c-.25-.09-.54-.17-.87-.27s-.58-.17-.81-.24l-.53-.2v-1.17a12.88 12.88 0 0 1 .17-1.7c0-.08 0-.44.09-1.08s.09-1.46.09-2.3 0-1.75.08-2.49.08-1.12.09-1.33a4 4 0 0 0 .14-1v-1.11c0-.36 0-.85-.09-1.45s-.08-1.1-.08-1.59v-1.34c0-.34 0-1-.65-1h-.1a1.15 1.15 0 0 0-.6.31l-.09.13a3 3 0 0 0-.25.94 13.42 13.42 0 0 0 0 2.67v2.61a8.06 8.06 0 0 1-.13 1.52v.12c0 .23 0 .7-.07 1.4s-.07 1.43-.07 2.13 0 1.49-.09 2.42-.08 1.79-.08 2.43-.16 1.4-.24 2.13-.11 1.29-.11 1.66a4.77 4.77 0 0 1-.1 1 2.45 2.45 0 0 1-.19.67 2 2 0 0 0-.2.75v.48c0 .09 0 .54.09 1.11s.08 1.12.08 1.79 0 1.38.09 2.06.08 1.14.08 1.47a11.07 11.07 0 0 1-.08 1.26 9.76 9.76 0 0 0-.09 1.12 4.26 4.26 0 0 1-.1.83c-.07.33-.13.6-.2.82a3.73 3.73 0 0 0-.54 1.74v.15q.08.21.12.36v.55l.26-.1a.85.85 0 0 0 .59.2.86.86 0 0 0 .56-.22.84.84 0 0 0 .28-.51l.7-.26-.56-.14a4.17 4.17 0 0 0 0-.52.76.76 0 0 1 .05-.3 2 2 0 0 0 .1-.33 1.45 1.45 0 0 0 .18-.44v-.1a4 4 0 0 1 .07-.46 4.2 4.2 0 0 0 .1-.9 5.86 5.86 0 0 1 .08-.83q.07-.48.09-.75a3.47 3.47 0 0 0 .14-1v-1.31c0-.43 0-.89-.08-1.63s-.07-1.35-.07-1.93v-2.72a2.82 2.82 0 0 0 .22-.81 7.55 7.55 0 0 0 .1-1.2v-.79a2.33 2.33 0 0 1 .37.08 7.61 7.61 0 0 0 1 .25 6.18 6.18 0 0 0 .91.12 2.6 2.6 0 0 0 .77.16 2.88 2.88 0 0 1 .71.14h.16c.17 0 .51 0 1-.07s.92-.07 1.37-.08h2.08l.85.08h.32a1.3 1.3 0 0 0 .48.16v1.92q0 1.25-.09 2.52c-.06.89-.08 1.45-.08 1.7a9.86 9.86 0 0 1-.09 1.09 13.27 13.27 0 0 0-.09 1.47 10 10 0 0 1-.08 1.21c-.06.46-.09.73-.09.82a4.2 4.2 0 0 1-.07.58 3.68 3.68 0 0 0-.1.77v1a6.86 6.86 0 0 0 .15 1.12 5.31 5.31 0 0 0 .1.84c0 .24.07.4.07.47v.15l.15.14a.6.6 0 0 0 .89.1 2.49 2.49 0 0 0 .31-.27 1.18 1.18 0 0 0 .29-.8v-.9a9.16 9.16 0 0 0-.09-1.1 7.71 7.71 0 0 1-.08-1.11 6.32 6.32 0 0 1 .16-1.25v-.1c0-.09 0-.34.08-.76a15.09 15.09 0 0 0 .09-1.79 17.5 17.5 0 0 1 .08-1.75c.06-.55.09-.86.09-.95s0-.55.09-1.38.08-1.82.08-2.84v-1.78c0-.65 0-1.28.05-1.91l.07-1.8v-3.85a6.13 6.13 0 0 0 .03-1.4ZM569.27 348.71a1.66 1.66 0 0 0-.44-1 .48.48 0 0 1 0-.19 1.12 1.12 0 0 0-.35-.91l-.3-.31a5.07 5.07 0 0 0-1-1 9.32 9.32 0 0 0-1.08-.7l-.76-.42a2 2 0 0 0-.85-.22h-2.08a4.86 4.86 0 0 1-.59.19.81.81 0 0 0-.64.82c0 .09 0 .29-.08.62a7.88 7.88 0 0 0-.09 1.17 11.82 11.82 0 0 1-.1 1.47c-.06.59-.1 1.12-.1 1.58s0 .87-.08 1.57-.09 1.48-.09 2.2 0 1.78-.09 3.2-.08 2.82-.08 4.17v2.07l-.07 2.26v3.87c-.1 1.09-.16 2.37-.17 3.79s0 2.63 0 3.62v2.47c0 .74 0 1.61.67 1.61h.48l.12-.07a1 1 0 0 0 .41-.53 3.18 3.18 0 0 0 .14-.92c0-.41 0-1 .05-1.77s0-1.82 0-3.12v-4.47c0-.68.05-1.26.08-1.77s0-.84 0-1.07a7.76 7.76 0 0 0 .09-1.06v-4.17a.65.65 0 0 0 .21 0 2 2 0 0 0 1.06-.16 3.87 3.87 0 0 0 .8-.42 3.08 3.08 0 0 0 .74-.41 2.94 2.94 0 0 0 .41-.36l.09-.06a1.38 1.38 0 0 0 .72-.32 2.12 2.12 0 0 0 .57-.59 4.54 4.54 0 0 0 .63-1 6.54 6.54 0 0 0 .47-1.2 5.84 5.84 0 0 0 .43-1.09 2.82 2.82 0 0 0 .16-.75 5.32 5.32 0 0 1 .1-.61c.07-.35.16-.71.26-1.08s.19-1 .26-1.59a13.58 13.58 0 0 0 .12-1.76 15.59 15.59 0 0 0-.03-1.58Zm-7 11.49v-6.09c0-.34 0-.94.11-1.78s.15-1.68.25-2.53 0-1.53.09-2.22.09-1.18.09-1.37a2.19 2.19 0 0 1 0-.29l.29-.09h1a2.37 2.37 0 0 1 .51.08 2.43 2.43 0 0 1 .55.22l.25.12v.46h.72a2.5 2.5 0 0 0 .31.4 2.35 2.35 0 0 1 .29.39l.34.57a3.34 3.34 0 0 1 .21.6 2.33 2.33 0 0 1 .09.58v.13l.07.12a1.5 1.5 0 0 1 .08.64 4.91 4.91 0 0 1-.14 1.17v.11a6.93 6.93 0 0 1-.1 1.13 3 3 0 0 1-.2.78l-.06.12v.12a3.86 3.86 0 0 1-.08.62 4.77 4.77 0 0 0-.1.81 1 1 0 0 1 0 .35 1.53 1.53 0 0 0-.1.38 4.86 4.86 0 0 0-.52 1.42 3.87 3.87 0 0 1-.39.77.85.85 0 0 0-.47.24.93.93 0 0 0-.25.48H565a.88.88 0 0 0-.59.23 1.05 1.05 0 0 0-.22.3l-.61.39-.73.27a1.05 1.05 0 0 0-.58.4Z"/><path fill="#fdac19" d="M588.15 364.25a4.56 4.56 0 0 0-.27-.73 1 1 0 0 0-.53-.69s0 0 0-.05a5.3 5.3 0 0 1-.15-.67c-.08-.23-.17-.46-.27-.68s-.25-.52-.61-.58a.22.22 0 0 1-.07-.07 1.05 1.05 0 0 0-.75-.42c-.18-.22-.35-.39-.53-.39s0-.05-.12-.21l-.14-.29h-.21a2 2 0 0 1-.19-.28 4.32 4.32 0 0 0-.68-.95 1.44 1.44 0 0 0-.88-.55 2.69 2.69 0 0 0-.5-.06 3.62 3.62 0 0 0-.13-.35c-.07-.17-.23-.54-.58-.62l-.07-.09a4.48 4.48 0 0 1-.32-.56c-.1-.21-.21-.48-.34-.82a1.62 1.62 0 0 0-.45-.75c-.08-.16-.16-.33-.25-.48a1.15 1.15 0 0 0-.42-.5v-.06a1.28 1.28 0 0 0-.29-.36 1.51 1.51 0 0 0-.18-.26l-.22-.28a3.3 3.3 0 0 0-.37-.4v-.07a.9.9 0 0 0-.48-.5 2.08 2.08 0 0 0-.13-.26 1.47 1.47 0 0 0-.67-1.14.24.24 0 0 1 0-.07 5.09 5.09 0 0 1-.21-.47c-.09-.65-.16-1.17-.67-1.17s-.58.52-.61 1.14a2.77 2.77 0 0 0 0 1.59 1.92 1.92 0 0 0 .35.93 7.22 7.22 0 0 1 .56 1l.1.15a3.94 3.94 0 0 1 .56.76c.24.43.39.68.6.76a1.06 1.06 0 0 0 .31.4l.22.39a3.49 3.49 0 0 0 .77 1 2.92 2.92 0 0 1 .59.81 6.27 6.27 0 0 1 .43.94 6 6 0 0 0 .44.74l.46.67a1.42 1.42 0 0 0 .62.59 1 1 0 0 0 .37.12l.21.06a1 1 0 0 1 .34.26l.71.9a9.69 9.69 0 0 0 .79.94l.55.66c.27.31.49.5.77.5h.14a.63.63 0 0 1 .15.19 3.2 3.2 0 0 1 .33.73.83.83 0 0 1-.14.32v.07h-.21l-.15.23a.45.45 0 0 1-.31.19 3.6 3.6 0 0 1-.7.07 1.69 1.69 0 0 0-1 .31l-.19.12h-.26l-.15.23a5.73 5.73 0 0 0-.4.71l-.17.26-.14.22a1.31 1.31 0 0 0-.53.49c-.16.22-.31.45-.49.73a3.77 3.77 0 0 1-.34.54l-.07.1h-.22l-.11.35a4.38 4.38 0 0 1-.46.82 3.44 3.44 0 0 1-.73.83 4.84 4.84 0 0 0-.94 1l-.28.34h-.2l-.11.35a1.59 1.59 0 0 1-.4.53 5.26 5.26 0 0 0-.86 1.13l-.87 1a1.89 1.89 0 0 0-.34 1.28 2.73 2.73 0 0 0 .1.76c.07.23.19.67.62.67h.79l.12-.35a2.32 2.32 0 0 1 .29-.6l.32-.51a1 1 0 0 0 .54-.34l.1-.1a1.13 1.13 0 0 0 .42-.49 1.09 1.09 0 0 0 .43-.49 1 1 0 0 0 .39-.38h.14l.13-.28a4 4 0 0 1 .36-.58l.09-.12h.21l.13-.28c.1-.2.21-.4.32-.58l.08-.13a1.44 1.44 0 0 0 .47-.41c.16-.19.34-.39.54-.59l.1-.15c.21-.46.43-.88.64-1.27a4.16 4.16 0 0 1 .23-.36 1 1 0 0 0 .56-.46h.26v-.36h.29a1.67 1.67 0 0 0 .92-.33.86.86 0 0 1 .31-.16 1.51 1.51 0 0 0 .9-.41 8 8 0 0 0 .76-.69 1.75 1.75 0 0 1 .42-.38 1.35 1.35 0 0 0 .49-.49l.1-.06a.78.78 0 0 0 .33-.69 1.22 1.22 0 0 0 .06-.43v-.66a3.18 3.18 0 0 0-.27-.92ZM509.53 361.6h.21l.15-.23a.42.42 0 0 1 .31-.19 3.53 3.53 0 0 1 .7-.07 1.69 1.69 0 0 0 1-.31c.14-.1.2-.12.19-.13h.26l.15-.22a5.18 5.18 0 0 0 .4-.72l.17-.26a1.76 1.76 0 0 1 .14-.22 1.36 1.36 0 0 0 .52-.49c.17-.23.32-.45.5-.73a3.71 3.71 0 0 1 .33-.54l.08-.1h.22l.14-.39a4 4 0 0 1 .46-.83 3.57 3.57 0 0 1 .73-.82 5.13 5.13 0 0 0 .94-1 3.22 3.22 0 0 1 .27-.34h.21l.11-.35a1.49 1.49 0 0 1 .4-.53 6 6 0 0 0 .86-1.13l.87-1a1.89 1.89 0 0 0 .34-1.28 2.74 2.74 0 0 0-.19-.72c-.06-.23-.18-.67-.61-.67h-.8l-.11.35a3.18 3.18 0 0 1-.29.59l-.32.51a1.21 1.21 0 0 0-.55.35l-.09.1a1.18 1.18 0 0 0-.43.48 1.22 1.22 0 0 0-.43.49 1.09 1.09 0 0 0-.38.39h-.14l-.14.28a3.58 3.58 0 0 1-.35.58l-.09.12h-.21l-.14.28a5.33 5.33 0 0 1-.31.58l-.08.12a1.4 1.4 0 0 0-.47.42 7.28 7.28 0 0 1-.55.59l-.1.15c-.21.46-.42.88-.64 1.26a2.31 2.31 0 0 1-.23.37.91.91 0 0 0-.55.45h-.26l-.06.37h-.29a1.72 1.72 0 0 0-.92.33 1 1 0 0 1-.3.16 1.48 1.48 0 0 0-.9.41 9.57 9.57 0 0 0-.77.69 1.6 1.6 0 0 1-.42.38 1.33 1.33 0 0 0-.48.49l-.1.05a.8.8 0 0 0-.34.69 2.15 2.15 0 0 0-.06.44v.66a3.27 3.27 0 0 0 .12.84 3.21 3.21 0 0 0 .27.73 1 1 0 0 0 .53.69 6.06 6.06 0 0 1 .16.67 4.12 4.12 0 0 0 .27.69c.07.14.24.52.61.58a.22.22 0 0 1 .07.07 1.07 1.07 0 0 0 .75.42c.18.22.35.39.53.39a.79.79 0 0 1 .13.21l.14.29h.2a1.36 1.36 0 0 1 .19.28 5.1 5.1 0 0 0 .68 1 1.51 1.51 0 0 0 .89.55 3.85 3.85 0 0 0 .5.06l.12.35c.08.17.24.54.59.62l.07.09a3.86 3.86 0 0 1 .32.56 7.63 7.63 0 0 1 .33.82 1.71 1.71 0 0 0 .46.74c.08.17.16.34.24.49a1.14 1.14 0 0 0 .42.49.16.16 0 0 1 0 .07 1.12 1.12 0 0 0 .29.36 1.1 1.1 0 0 0 .18.26l.22.28a2.66 2.66 0 0 0 .37.39v.08a.82.82 0 0 0 .48.49.9.9 0 0 0 .13.26 1.41 1.41 0 0 0 .66 1.14.43.43 0 0 1 0 .07c.09.18.16.37.21.48.09.65.16 1.17.67 1.17s.58-.53.61-1.15a2.74 2.74 0 0 0 0-1.58 1.83 1.83 0 0 0-.35-.93 8.52 8.52 0 0 1-.55-1l-.1-.15a3.75 3.75 0 0 1-.56-.77c-.25-.43-.39-.67-.6-.76a1.4 1.4 0 0 0-.31-.4c0-.07-.12-.2-.22-.38a3.92 3.92 0 0 0-.78-1 2.72 2.72 0 0 1-.59-.8 9.31 9.31 0 0 1-.43-.94 5.57 5.57 0 0 0-.44-.75l-.45-.66a1.48 1.48 0 0 0-.62-.59 1 1 0 0 0-.38-.12l-.2-.07a.85.85 0 0 1-.34-.25c-.18-.21-.42-.51-.71-.9a11.54 11.54 0 0 0-.79-.95l-.56-.65c-.26-.31-.48-.5-.76-.5a.5.5 0 0 1-.14 0 .54.54 0 0 1-.16-.18 4.2 4.2 0 0 1-.33-.74 1.73 1.73 0 0 1 .14-.32Z"/><path d="M261.62 508.65c-3.55-.68-9.76-3.84-11-5.88s2.43-2.34 5.17-2.9a14.52 14.52 0 0 1-1.8-.22 8.82 8.82 0 0 1-4.36-2.08 20.22 20.22 0 0 0 1.1-4.21c-2.73.28-6.37-2.27-8.84-6.42a16.07 16.07 0 0 1-2.25-6.49c-1.63-4.46-.39-9.26 3.24-11.41a6.1 6.1 0 0 1 .57-.29c-.3-.66-.59-1.32-.88-2q-.93-2.25-1.84-4.5c.19.36.4.71.62 1.06 1.82 2.74 4.65 3.83 7.53 4.88a10 10 0 0 1 2.19.82 18.71 18.71 0 0 1 3 1.44c4.6 2.83 14.27 16.83 12.1 21.93a7 7 0 0 0 3.66 9.31c4.4 2.08.92 7.52-2.53 10.34-1.34 1.1-2.13 0-6.21 1 0-.11-1.15-.29-1.17-.4a4.43 4.43 0 0 1 1.7-3.98Z"/><path fill-rule="evenodd" d="M197.1 593.42c-2.52-.67-.72-3.33-.11-5.44-2-.16-3.89 1.75-6.54 2.16-1.51.21-8.13-1.37-8.32-4.19 4.68.82 5.46 1.26 6.36 1 5.6-.42 9.21-4.2 13.85-6.49 5.3 5.32-3.69 7.54-5.24 12.96Z"/><path fill="#fcd4ca" d="M188.24 586.06c4.92-2.81 8.34-7.28 9.08-10.43l4.47 1.56c-.23.6.55 3.27.55 3.27s-7 4.74-11.61 6.48c-3 1.13-4.17-.18-4.17-.18s.3.09 1.68-.7Z"/><path fill="#040e31" d="M220.68 535c4.56-2.35 7.55.1 23.33-5.5l13.63-4.32c.26 1.39 4.53 2.93 5.5 4.71C266.48 536.05 267 547 253 549.1l-28.38.27c-5.88 13.48-22.38 29.42-22.38 29.42s-5.12-1.31-5.64-2.21 21.76-40.38 24.08-41.58Z"/><path fill="#fcd4ca" d="M246.82 476.54c-1.38-1.78.52-8.38.19-9-.66-1.31-12.3-3.82-13.91-2.83-1.1.67-5.92.52 5.65 17.38a2.54 2.54 0 0 0 1.12-1.13c1-1.9 4.46 4.26 5.5 8.78 1.09 4.69 4.55 19.33 4.86 19.75s7.23-5.28 8-8c-.9-2.25 4.41-15.23 3.4-17.4-11.96 5.53-15-7.95-14.81-7.55Z"/><path fill="#fcd4ca" d="M231.91 474.32c-.2-1.07-2.32-5.14-2.38-6.71 3.85-2.64 4.37-2.81 6.85.24 1.31 1.62 6.94 10.51 6.86 10.62s-4.12 5.12-5.91 4.71c-.24-.05-1.16-2.72-1.77-2.69s-.75-.26-.83-.72.05-.39-.43-.4-.65-.44-.34-.84c.49-.61-1-.58-2-.82s.42-1.01-.05-3.39Z"/><path fill="#fff" d="M234.56 479.39c-.13-.1.73-.68 1.76-.81 0 0-1.62 1.32-1.62 1.07s.06-.19-.14-.26Z"/><path d="m243.23 484 .5-9.35a13.39 13.39 0 0 1-.56 3.55A8.51 8.51 0 0 1 241 481c.79.36 2.23 3 2.23 3Z" style="mix-blend-mode:multiply" fill="url(#b)"/><path d="M241.21 457.06c11.71 6.74 5.67 19.73 5.67 19.73-.81-1-2.52-4.28-2.39-5 .17-1 1.15-1.25.47-2.34-2.19-3.5-1.86.91-1.86.91-.7-1.55-6.15-5.94-7.95-6.86a4.53 4.53 0 0 0-3.33-.4c-.09-2.3 4.41-8.9 9.39-6.04Z"/><path fill="#fff" d="M244.68 524c-2.15 4.47-4.69 5.61-4.69 5.61-4.28 2.79 8.95 20.09 11 19.75 5.76-1 16.34-3.3 16-14.71 0 0-5.54-16.37-4.05-46.37.21-4.35-2.85-6.81-7.15-6.1-4.29.71-17.93 21.44-16.06 26.92.08.04 6.73 11.23 4.95 14.9Z"/><path fill="#bbe6dd" fill-rule="evenodd" d="M203.27 512.87c.11-.1 1.2.44 1.32.38l17.24 19.6-2.09.45a10.07 10.07 0 0 1-.79-.82l-15.65-18a1 1 0 0 1-.03-1.61Z"/><path fill="#d8d2d2" fill-rule="evenodd" d="M202.2 513.77c.11-.1.86-.76.91-1.06L220.86 533c0 .1 0 .08 0 0l29.31-6.21c.06.13.29 1.11.32 1.26a1 1 0 0 1-.91 1.29l-27.16 5.75a1 1 0 0 1-1.14-.34.28.28 0 0 1 0 .11 1.07 1.07 0 0 1-1.63-.19l-17.47-19.33a1.06 1.06 0 0 1 .02-1.57Z"/><path fill="none" d="M240.2 528.42a8 8 0 0 1-1.39.24c1.02-.35 1.65-.51 1.39-.24Z"/><path fill="#fcd4ca" d="M238.16 525.15a7.85 7.85 0 0 0 .87.27 17.93 17.93 0 0 0 6.28.34h1c-.11.88-.24 1.76-.35 2.64-2.56.35-6.54 1.42-8 1.59-2 .22-2.2 0-2.2 0 .16-.63 1.92-.95 2.84-1.26a8 8 0 0 0 1.66-.36c.26-.27-1.1-.45-2.12-.1-1.05.13-3.08 1.73-3.26 1.87a10.42 10.42 0 0 1-3 .79c-.73.23 5.27-5.13 6.28-5.78Z"/><path fill="#fff" d="M255.51 520.72c-9.28.89-13.2 3.16-11.88 5.23s-.13-.2-.75 4.92c-.43 3.5 5.69 1.1 8.5.83a71.22 71.22 0 0 1 7.54-.5"/><path fill="#b2dfd6" d="M258.91 531.48v-.54a59.69 59.69 0 0 0-6.89.43l-.67.06a24.48 24.48 0 0 0-2.46.45c-2.15.47-4.82 1-5.61.07a1.33 1.33 0 0 1-.21-1.05c.31-2.58.83-3.18 1.08-3.47.39-.45.27-.63-.37-1.64a1.08 1.08 0 0 1-.15-1c.48-1.35 3.85-3.06 11.87-3.83v-.53c-7.07.67-11.53 2.19-12.23 4.16a1.63 1.63 0 0 0 .19 1.5 6 6 0 0 1 .5.86s0 0-.08.06c-.28.34-.87 1-1.21 3.8a1.91 1.91 0 0 0 .33 1.5c.93 1.17 3.61.58 6 .07a24.1 24.1 0 0 1 2.42-.44l.67-.07a59.11 59.11 0 0 1 6.82-.39Z"/><path d="M226 464.42a4.42 4.42 0 0 1 3.64 2.43 26.25 26.25 0 0 1 4-6.18 18.47 18.47 0 0 0 3.95 1.27c.34.08.68.13 1 .18.43 1.89 4.15 2.26 4.7 4.12-.66 1.09-4.49 3.78-5.36 5-2.93 3.88-6.79 2.76-8.93-1.24-.81-1.52-1.63-4.59-3.36-5.64ZM438.48 461.48c.7-2.14.2-5.14-3.6-6.1a6.77 6.77 0 0 0-3.88-.28c-1.8-2.82-7.56 1.82-7.81 1.93-6.81 3.19-2.21 7-2.36 9.3-.16 2.48 1.7-1.55 2.25-2.05 0 0-.48-.56.23-1.55s2.79-1.66 2.47 1.29c-.1.74 2.87-4.31 3.5-4.75l.19-.18.17-.13c2.37-1.73 4.5 4.86 6.7 4.51a2.72 2.72 0 0 0 2.14-1.99Z"/><path fill="#fe6a3c" d="M455.41 537.82c2.95-.62 12.3 1.56 11.26-13-1.87-26.09-5.55-35.18-16.89-40.45-2.56-1.2-10.35-2.91-11-3.2s-14.53.62-15.32.18c-2.62-1.49-15.33 3.56-18.68 8.29 0 0-15.8 28.9-11.6 37.29 2.11 4.22-2.77 10.64 14.53 7.68 1.29-.25 24.29 6.39 47.7 3.21Z"/><path fill="#fcd4ca" d="M423.44 478.72a6.27 6.27 0 0 1 0 2.61c-.07 5.06 3.26 7.92 7.13 7.92a7.31 7.31 0 0 0 7.51-6.52l.26-6.55s-15.7-.39-14.9 2.54Z"/><path fill="url(#e)" d="M437.26 485.42c1.26-1.47 1-7.91 1-12.23h-14.72c0 2.08 4.2 7.94 4.43 10.1a16.41 16.41 0 0 0 9.29 2.13Z"/><path fill="#fcd4ca" d="M438.36 470.71c0-1.94.47-6.11.09-7.7h-16.51a45.4 45.4 0 0 0-.61 7.42c-.72-.22-1.26-1.25-1.32-.09-.2 3.43.55 4.77 1.3 4.77a1.09 1.09 0 0 0 .4-.07c1 5.74 3.86 9.89 8.44 9.91h.05c4.85 0 7.59-4.12 8.5-9.84.71 0 1.11 0 1.41-3.85.2-2.62-1.11-.94-1.75-.55Z"/><path d="M419.61 463.8c-.68.82 1.05 3.4 1.37 6.28a4.48 4.48 0 0 0 .7 1.8c-.09-.84.2 5.33.49-4.47a3.76 3.76 0 0 1 2.65-3.5c1-.2 5.19 1 6.17 1 1.7 0 3.19-1.5 4.75-.87.53.21 2.33.58 2.14 4a32.2 32.2 0 0 1 .07 4.26 9.32 9.32 0 0 1 .41-1.54c.29-.36.63-.21.7-.48.25-1 2.86-9.15-.12-10.57-4.16-5.82-13.31-1.79-14.35-1.55-3.77.84-2.75 2.91-4.98 5.64ZM406.58 597.61c-1.44.25-.39.72-1.61 1a1.58 1.58 0 0 0-.4.15l-1-.74-2.66.55c-1.43 2.16-3.31 1.47-5.34 2.61-5.63 3.17-6.69 3.52-6 5.69s4.1 1.27 5.69 1 4.67-1.34 6.2-1.78a9.25 9.25 0 0 0 3.34-2 10.89 10.89 0 0 0 3.83-.79c.59-.45-1.77-5.73-2.05-5.69Z"/><path fill="#045e5b" d="M457.55 534.43c-14.5-3.14-19.07-2.57-21.54-2.7-4-.22-13.42-6-16.47-5.45-7.71 1.45-10.5 21.16-4.05 21.5 26 2.48 34.38-1.12 38.38 2.78 0-6.06 1.51-10.56 3.68-16.13Z"/><path fill="#b5242f" d="M412 523c-5.72-.33-7.22-1.23-11.09-1.56h-.27c.34.12 7.82 2.17 11.76 2.17Z"/><path fill="#b5242f" d="M457.77 523.84c-4 .88-4.8 1.52-7.48 2.15h-.2a46.41 46.41 0 0 1 7.78-2.55Z"/><path fill="#b3b3b3" fill-rule="evenodd" d="M400.38 534.16a2.12 2.12 0 0 0-.1.62 2 2 0 0 0 2 2h56.32a2 2 0 0 0 2-2 1.83 1.83 0 0 0-.1-.62Z"/><path fill="#fff" d="M453.36 504.62h-45.79a2.35 2.35 0 0 0-2.35 2.34v25.1a2.36 2.36 0 0 0 2.35 2.35h45.79a2.35 2.35 0 0 0 2.34-2.35V507a2.34 2.34 0 0 0-2.34-2.38Z"/><path fill="#02797d" d="M407.22 600.79c1.21-.74.58-2.5 1.76-4.93 6.92-14.27 14.68-52.44 14.68-52.44.28-4.37-6.65-10.88-11-11.15a7.92 7.92 0 0 0-8.42 7.4s-.94 6.21-2.23 14.69l-7.11 47a12.18 12.18 0 0 0 12.32-.57Z"/><path d="M456.44 593.74c1.43.25.38.72 1.61 1a1.58 1.58 0 0 1 .4.15l1-.75 2.66.56c1.42 2.16 3.31 1.47 5.34 2.61 5.63 3.17 6.68 3.52 6 5.69s-4.1 1.27-5.69 1-4.67-1.34-6.2-1.78a9.41 9.41 0 0 1-3.35-2 11.27 11.27 0 0 1-3.82-.8c-.59-.42 1.77-5.72 2.05-5.68Z"/><path fill="#02797d" d="M462.1 599c-1.91-.12-3.57-2.73-6.3-2.11-7.78 1.76-7.46-27.44-10.59-42.21-2.58-12.15-5.85-15.16-5.85-15.16-.28-4.37 3.58-8.14 8-8.41s10.72 2.41 11 6.78l9.82 59.54a10.72 10.72 0 0 1-6.08 1.57Z"/><path fill="#d8d2d2" d="M637.15 585.74a114.19 114.19 0 0 1 .84 13.75c-1.44 0-3.45-.63-4.85-.34-.42.09-.73-5.45-2.06-13.55 2.03-.05 4.05.01 6.07.14Z"/><path fill="#040e31" d="M614.77 548.58c3-.07 9.64 15.3 16.3 47.85l7.34-1.91c-.64-10.67.26-63.25-10-62.11-3.47-.58-16-3.85-34.59-8.8-21.28-12.3-23.82-2.89-26.58-1.71 0 0 1.6 21.57 11.11 26.7 12.88 3.29 23.49.32 36.42-.02Z"/><path fill="#bbe6dd" fill-rule="evenodd" d="M642.72 507.6c-.12-.09-1.81-.84-1.94-.88L626.07 528l1.28 2.67c.19-.19 1.86-1.83 2-2l13.5-19.51a1 1 0 0 0-.13-1.56Z"/><path fill="#fff" fill-rule="evenodd" d="M643.88 508.37c-.12-.08-.94-.66-1-.95l-15.33 22c0 .1 0 .09 0 0l-1.17-2-26.74-5.87c-.05.12-1.89 6-1.91 6.15a1 1 0 0 0 1 1.18l27.47 2.74a1.05 1.05 0 0 0 1.09-.45s0 .08 0 .09a1 1 0 0 0 1.58-.36L644 510a1 1 0 0 0-.12-1.63Z"/><path fill="#040e31" d="m632 598.26 3.77.54a9.85 9.85 0 0 0 2.36-.36c2 1.56 4.72 2.1 6.86 2.76s3 .76 5.44 1.54a.78.78 0 0 1 .5 1c-.56 1.64-2.95 1.48-4.39 1.45s-4.45-.54-5.9-.71c-3.28-.39-5.1-1.3-5.35-.57-.17.49-3.61-.07-3.66-1-.14-2.27.72-1.07.37-4.65Z"/><path fill="#edc4bc" d="M612.23 520.15c-.38.16-.75.32-1.12.44a24.14 24.14 0 0 1-8.24 1.06l-1.31.13c.24 1.15.49 2.3.73 3.44 3.4.22 8.76 1.24 10.76 1.31 2.61.1 2.9-.18 2.9-.18-.28-.82-2.62-1.07-3.86-1.38a11 11 0 0 1-2.23-.31c-.37-.33 1.4-.7 2.78-.35 1.39.08 4.23 2 4.48 2.15a13.37 13.37 0 0 0 4 .74c.93.18-7.5-6.29-8.89-7.05Z"/><path fill="#add8ce" d="M592 519c1.54.82 3 1.76 4.51 2.6a76.75 76.75 0 0 1 8.42 1.82c.58-1.25 1.14-2.26 1-2.31-4.08-1-9.08-12.53-11.89-18.4-7.33-15.27-12.39-6.82-13.74-16.28-1-4.65-4.27-11.79-5.68-3.08-.5 5.66-1.92 13.45-2.74 17.77 4 3.56 8.47 6.62 12.4 10.3 2.6 2.46 5.15 5.03 7.72 7.58Z"/><path fill="#bbe6dd" d="M592.43 525.61c0-14.09 1.12-49.23-.47-49.86-.18-.08-.87 2.05-.87 2.05s-7.81-4.81-8.54-5.3a6.82 6.82 0 0 1-1.14-.79c-2.76-2.27-13.24 4.32-14.65 14.84 0 0-4.79 22-1.42 27.71 0 .64.08 1.27.13 1.89-1.63 4.06 1.81 16.51 5.91 17 7.21 3.95 21.05-2.28 21.05-7.54Z"/><path fill="#add8ce" d="M603.45 524c-4.07-1-11.94-3.81-14.73-10.42-14.2-9.23-7.1-17.72-8.45-27.18-1-4.65-4.27-11.79-5.68-3.08-.72 8.22-3.39 20.9-3.35 21 6.57 17.37 21.64 23.55 32.58 22.34.18-2.03-.04-2.56-.37-2.66Z"/><path fill="#fcd4ca" d="M613.52 522.14a9 9 0 0 1-1.14.38 23.84 23.84 0 0 1-8.28.67l-1.31.07c.19 1.16.38 2.32.56 3.48 3.39.37 8.69 1.65 10.69 1.81 2.6.23 2.9 0 2.9 0-.24-.82-2.57-1.18-3.79-1.55a11.49 11.49 0 0 1-2.21-.42c-.36-.35 1.43-.63 2.79-.21 1.39.14 4.13 2.18 4.38 2.35a13.24 13.24 0 0 0 3.95.94c.94.17-7.18-6.66-8.54-7.52ZM600 463.38c.37-2.38 1.49-4.9-1-6.48-1-.61-.56-1.85-5.5-3.08-.36-.06-2.53 5.18-3 7.29-.13.24.25 1.24 0 .41-1.17-3.31-4-2.1-4-.47-.11 2.34-.84.89-1.72 1.29-.07 0-1.2 3.35-1.2 3.35l-3.24 6.07a13.41 13.41 0 0 0 6.83 7.11c3.42 1.7 4.13-1.09 4.13-1.09s1.81-5.65 2.56-5.3c4 1.87 1.94 1.92 4.42-4.83.06-.16 1 .41 1.71.36.4-.01-.37-2.08.01-4.63Z"/><path fill="url(#f)" d="M589.08 467.34c-.29-.55 2.88 8.41 2.88 8.41s.94-3 1.71-3.31c.09-.03-2.29-.78-4.59-5.1Z"/><path d="M604.05 455.48c.08-2.74-1.54-6.05-6.3-5.85-1.79.07-2.52-2.44-3.93-1.51-3.07-2.67-7.35 1.6-8.2 3.71a7.32 7.32 0 0 0-.42 1.56c-1.6-.05-1.92 1.14-2 2.54-4 1.57 1.33 6.84.3 9.19-1.38 3.14 3.09-.29 3.56-1.07 0 0-.76-.48-.27-1.88.55-1.58 2.67-2.89 3.32.66.08.51.69-1.59 1.3-3.59 2 1.63 4.44.44 6.16-1.17 1.8.59 3.63.95 4.65.46a3.3 3.3 0 0 0 1.83-3.05Z"/><path fill="#fff" d="m596.76 469.27-.32.88c-.43-.16-1-1.78-1-1.78Z"/><path fill="#bbe6dd" d="M604.87 523.37c-7.68-4.19-9.78-6-13.85-12.94-5.72-9.66-8.25-21.54-11.77-31.68-2.1-4.93-11.3-2.66-11.09 7.14-.93 10.5 7.05 25.86 12.14 30.23 6.06 6.44 17.67 11.1 24.12 11.2Z"/><path fill="#bbe6dd" d="M595 525.66c-6.1-2.23-11.58-5.61-15-9.28-4.86-4.17-13.21-19.6-12.24-30.52-.09-3.9 1.35-7.15 3.93-8.87a6 6 0 0 1 5.36-.85 4.45 4.45 0 0 1 2.58 2.47c1 2.89 1.9 5.83 2.85 8.95 2.36 7.76 4.81 15.79 8.89 22.68s5.9 8.54 13.69 12.8l.24.12-.51 4.56h-.37a30.69 30.69 0 0 1-9.42-2.06Zm-18.26-48.79a5.19 5.19 0 0 0-4.61.76c-2.36 1.58-3.67 4.59-3.6 8.26-.95 10.75 7.22 25.84 12 30 3.35 3.55 8.86 6.94 14.75 9.09a30 30 0 0 0 8.75 2l.37-3.34c-7.67-4.21-9.77-6.2-13.76-13-4.13-7-6.59-15.05-9-22.86-1-3.1-1.84-6-2.83-8.89a3.6 3.6 0 0 0-2.04-2.02Z"/></g></svg>